<?xml version="1.0" encoding="UTF-8"?> <svg xmlns="http://www.w3.org/2000/svg" xmlns:xlink="http://www.w3.org/1999/xlink" width="558" height="487"><style><![CDATA[.B{fill-rule:nonzero}.C{fill:#fff}.D{fill:#f38840}.E{fill:#ce7539}.F{fill:#d6ac8e}.G{fill:#cadef1}.H{fill:#98bbea}.I{fill:#4577bb}.J{fill:url(#C)}.K{fill:#395171}.L{fill:#25326a}.M{fill:#7192be}.N{opacity:.517}.O{fill:url(#E)}.P{stroke-width:.897}.Q{fill:#7ea0cf}.R{fill:#020f23}]]></style><defs><linearGradient x1="94.8343232%" y1="51.941029%" x2="36.0072622%" y2="60.923627%" id="A"><stop stop-color="#091d3c" stop-opacity="0" offset="0%"></stop><stop stop-color="#05142b" offset="100%"></stop></linearGradient><linearGradient x1="0%" y1="45.2818917%" x2="100%" y2="50%" id="B"><stop stop-color="#cbdff1" offset="0%"></stop><stop stop-color="#95b9ea" offset="100%"></stop></linearGradient><linearGradient x1="50%" y1="0%" x2="50%" y2="100%" id="C"><stop stop-color="#96baea" offset="0%"></stop><stop stop-color="#fff" offset="100%"></stop></linearGradient><path d="M21.065 20.86l55.64 8.99c1.255.203 2.3 1.056 2.77 2.24l23.733 61.053c.718 1.846-.197 3.924-2.043 4.642-.6.23-1.23.298-1.856.2l-55.085-8.65c-1.254-.197-2.31-1.043-2.778-2.224L17.158 25.72c-.73-1.842.174-3.925 2.016-4.654.6-.238 1.254-.31 1.89-.206z" id="D"></path><linearGradient x1="50%" y1="0%" x2="50%" y2="100%" id="E"><stop stop-color="#e7f1f9" offset="0%"></stop><stop stop-color="#cadef1" offset="100%"></stop></linearGradient><radialGradient cx="12.9695919%" cy="100%" fx="12.9695919%" fy="100%" r="93.1821713%" gradientTransform="translate(0.129696,1.000000),scale(1.000000,0.977582),rotate(-138.646513),translate(-0.129696,-1.000000)" id="F"><stop stop-color="#f7893f" offset="0%"></stop><stop stop-color="#ef853f" offset="26.0220963%"></stop><stop stop-color="#091d3c" offset="100%"></stop></radialGradient><path d="M85.162 113.12l59.273 9.58c1.255.203 2.3 1.056 2.77 2.24l25.254 64.965c.718 1.846-.197 3.924-2.043 4.642-.6.23-1.23.298-1.856.2l-58.684-9.216c-1.254-.197-2.31-1.043-2.778-2.224L81.255 117.98c-.73-1.842.174-3.925 2.016-4.654.6-.238 1.254-.31 1.89-.206z" id="G"></path><filter x="-38.1%" y="-40.3%" width="176.2%" height="185.5%" id="H"><feGaussianBlur stdDeviation="-0.130527696 2.4906168" in="SourceGraphic"></feGaussianBlur></filter><filter x="-53.9%" y="-58.0%" width="207.8%" height="221.0%" id="I"><feMorphology radius="0.448275862" operator="dilate" in="SourceAlpha"></feMorphology><feOffset dy="2" result="B"></feOffset><feMorphology radius="1" in="SourceAlpha"></feMorphology><feOffset dy="2"></feOffset><feComposite in="B" operator="out" result="B"></feComposite><feGaussianBlur stdDeviation="13.5"></feGaussianBlur><feColorMatrix values="0 0 0 0 1 0 0 0 0 1 0 0 0 0 1 0 0 0 0.5 0"></feColorMatrix></filter><path d="M85.162 75.834l59.273 9.58c1.255.203 2.3 1.056 2.77 2.24l25.254 64.965c.718 1.846-.197 3.924-2.043 4.642-.6.23-1.23.298-1.856.2l-58.684-9.216c-1.254-.197-2.31-1.043-2.778-2.224L81.255 80.694c-.73-1.842.174-3.925 2.016-4.654.6-.238 1.254-.31 1.89-.206z" id="J"></path><linearGradient x1="50%" y1="69.5324808%" x2="50%" y2="3.061617e-15%" id="K"><stop stop-color="#091d3c" stop-opacity="0" offset="0%"></stop><stop stop-color="#f7893f" offset="100%"></stop></linearGradient><linearGradient x1="50%" y1="69.5324808%" x2="50%" y2="3.061617e-15%" id="L"><stop stop-color="#f4883e" stop-opacity="0" offset="0%"></stop><stop stop-color="#f7893f" offset="100%"></stop></linearGradient><linearGradient x1="28.0394627%" y1="45.3248835%" x2="187.227029%" y2="138.275633%" id="M"><stop stop-color="#cbdff1" offset="0%"></stop><stop stop-color="#95b9ea" offset="100%"></stop></linearGradient><linearGradient x1="91.0867095%" y1="21.0024282%" x2="50%" y2="100%" id="N"><stop stop-color="#f7893f" offset="0%"></stop><stop stop-color="#d8732f" offset="100%"></stop></linearGradient><path d="M5.38 36.286v-3.43c0-.648.35-1.246.914-1.563l12.094-6.8c.432-.243.978-.09 1.22.342.075.134.115.285.115.44v2.947L5.38 36.286z" id="O"></path><ellipse id="P" cx=".897" cy="1.344" rx="1" ry="1.344"></ellipse><ellipse id="Q" cx=".897" cy="1.344" rx="1" ry="1.344"></ellipse><ellipse id="R" cx=".897" cy="1.344" rx="1" ry="1.344"></ellipse><ellipse id="S" cx=".897" cy="1.344" rx="1" ry="1.344"></ellipse><ellipse id="T" cx=".897" cy="1.344" rx="1" ry="1.344"></ellipse><ellipse id="U" cx=".897" cy="1.344" rx="1" ry="1.344"></ellipse><ellipse id="V" cx=".897" cy="1.344" rx="1" ry="1.344"></ellipse><ellipse id="W" cx=".897" cy="1.344" rx="1" ry="1.344"></ellipse><ellipse id="X" cx=".897" cy="1.344" rx="1" ry="1.344"></ellipse><ellipse id="Y" cx=".897" cy="1.344" rx="1" ry="1.344"></ellipse><ellipse id="Z" cx=".897" cy="1.344" rx="1" ry="1.344"></ellipse><ellipse id="a" cx=".897" cy="1.344" rx="1" ry="1.344"></ellipse><path id="b" d="M82.93 70.78c.743 0 1.345.602 1.345 1.345v55.1h-2.7v-55.1c0-.743.602-1.345 1.345-1.345z"></path><path id="c" d="M445.666 210.07a3.2 3.2 0 0 0 1.348 3.591l13.16 8.406a1.5 1.5 0 0 0 2.068-.456c.154-.24.235-.52.235-.806a4.99 4.99 0 0 0-2.304-4.204l-11.814-7.543a1.8 1.8 0 0 0-2.693 1.011z"></path><path id="d" d="M336.287 192.824c-.396 1.223.084 2.56 1.167 3.252l13.528 8.642c.64.41 1.5.22 1.898-.418.14-.22.216-.478.216-.74a4.58 4.58 0 0 0-2.115-3.86l-12.183-7.778c-.785-.5-1.828-.27-2.33.514-.077.12-.14.25-.183.388z"></path><path id="e" d="M356.01 189.688c-.4 1.504.218 3.094 1.53 3.93l12.79 8.17a1.62 1.62 0 0 0 2.492-1.365c0-1.842-.94-3.557-2.493-4.55l-11.443-7.306a1.91 1.91 0 0 0-2.875 1.119z"></path><path id="f" d="M73.93 213.774l-.39.645-.182-.09.607-1 .265-.148v2.522l-.302.17v-2.106zm1.4.064c0-.22.033-.446.098-.68s.167-.453.305-.657.313-.364.524-.482.382-.15.522-.103.242.153.307.314.098.352.098.57-.033.446-.098.68a2.24 2.24 0 0 1-.307.66c-.14.205-.313.366-.522.483s-.382.15-.522.1-.242-.155-.307-.316-.098-.352-.098-.57zm1.546-.864c0-.285-.05-.498-.15-.64s-.256-.154-.47-.035-.37.306-.47.56a2.19 2.19 0 0 0-.149.808c0 .287.05.502.15.645s.256.154.47.035.37-.306.47-.56a2.2 2.2 0 0 0 .149-.811zm1.772-1.838l-.39.645-.182-.09.607-1 .265-.148v2.522l-.302.17v-2.106zm1.4.064c0-.22.033-.446.098-.68s.167-.453.305-.657.313-.364.524-.482.382-.15.522-.103.242.153.307.314.098.352.098.57-.033.446-.098.68a2.24 2.24 0 0 1-.307.66c-.14.205-.313.366-.522.483s-.382.15-.522.1-.242-.155-.307-.316-.098-.352-.098-.57zm1.546-.864c0-.285-.05-.498-.15-.64s-.256-.154-.47-.035-.37.306-.47.56a2.19 2.19 0 0 0-.149.808c0 .287.05.502.15.645s.256.154.47.035.37-.306.47-.56a2.2 2.2 0 0 0 .149-.811zm1.772-1.838l-.39.645-.182-.09.607-1 .265-.148v2.522l-.302.17v-2.106zm1.4.064c0-.22.033-.446.098-.68s.167-.453.305-.657.313-.364.524-.482.382-.15.522-.103.242.153.307.314.098.352.098.57-.033.446-.098.68a2.24 2.24 0 0 1-.307.66c-.14.205-.313.366-.522.483s-.382.15-.522.1-.242-.155-.307-.316-.098-.352-.098-.57zm1.546-.864c0-.285-.05-.498-.15-.64s-.256-.154-.47-.035-.37.306-.47.56a2.19 2.19 0 0 0-.149.808c0 .287.05.502.15.645s.256.154.47.035.37-.306.47-.56a2.2 2.2 0 0 0 .149-.811zm1.772-1.838l-.39.645-.182-.09.607-1 .265-.148v2.522l-.302.17v-2.106zm1.4.064c0-.22.033-.446.098-.68s.167-.453.305-.657.313-.364.524-.482.382-.15.522-.103.242.153.307.314.098.352.098.57-.033.446-.098.68a2.24 2.24 0 0 1-.307.66c-.14.205-.313.366-.522.483s-.382.15-.522.1-.242-.155-.307-.316-.098-.352-.098-.57zm1.546-.864c0-.285-.05-.498-.15-.64s-.256-.154-.47-.035-.37.306-.47.56a2.19 2.19 0 0 0-.149.808c0 .287.05.502.15.645s.256.154.47.035.37-.306.47-.56a2.2 2.2 0 0 0 .149-.811zm1.772-1.838l-.39.645-.182-.09.607-1 .265-.148v2.522l-.302.17v-2.106zm1.4.064c0-.22.033-.446.098-.68s.167-.453.305-.657.313-.364.524-.482.382-.15.522-.103.242.153.307.314.098.352.098.57-.033.446-.098.68a2.24 2.24 0 0 1-.307.66c-.14.205-.313.366-.522.483s-.382.15-.522.1-.242-.155-.307-.316-.098-.352-.098-.57zm1.546-.864c0-.285-.05-.498-.15-.64s-.256-.154-.47-.035-.37.306-.47.56a2.19 2.19 0 0 0-.149.808c0 .287.05.502.15.645s.256.154.47.035.37-.306.47-.56a2.2 2.2 0 0 0 .149-.811zm1.772-1.838l-.39.645-.182-.09.607-1 .265-.148v2.522l-.302.17v-2.106zm1.863-1.04l-.39.645-.182-.09.607-1 .265-.148v2.522l-.302.17v-2.106zm1.4.064c0-.22.033-.446.098-.68s.167-.453.305-.657.313-.364.524-.482.382-.15.522-.103.242.153.307.314.098.352.098.57-.033.446-.098.68a2.24 2.24 0 0 1-.307.66c-.14.205-.313.366-.522.483s-.382.15-.522.1-.242-.155-.307-.316-.098-.352-.098-.57zm1.546-.864c0-.285-.05-.498-.15-.64s-.256-.154-.47-.035-.37.306-.47.56a2.19 2.19 0 0 0-.149.808c0 .287.05.502.15.645s.256.154.47.035.37-.306.47-.56a2.2 2.2 0 0 0 .149-.811zm1.3-.732c0-.22.033-.446.098-.68s.167-.453.305-.657.313-.364.524-.482.382-.15.522-.103.242.153.307.314.098.352.098.57-.033.446-.098.68a2.24 2.24 0 0 1-.307.66c-.14.205-.313.366-.522.483s-.382.15-.522.1-.242-.155-.307-.316-.098-.352-.098-.57zm1.546-.864c0-.285-.05-.498-.15-.64s-.256-.154-.47-.035-.37.306-.47.56a2.19 2.19 0 0 0-.149.808c0 .287.05.502.15.645s.256.154.47.035.37-.306.47-.56a2.2 2.2 0 0 0 .149-.811zm1.772-1.838l-.39.645-.182-.09.607-1 .265-.148v2.522l-.302.17v-2.106zm1.4.064c0-.22.033-.446.098-.68s.167-.453.305-.657.313-.364.524-.482.382-.15.522-.103.242.153.307.314.098.352.098.57-.033.446-.098.68a2.24 2.24 0 0 1-.307.66c-.14.205-.313.366-.522.483s-.382.15-.522.1-.242-.155-.307-.316-.098-.352-.098-.57zm1.546-.864c0-.285-.05-.498-.15-.64s-.256-.154-.47-.035-.37.306-.47.56a2.19 2.19 0 0 0-.149.808c0 .287.05.502.15.645s.256.154.47.035.37-.306.47-.56a2.2 2.2 0 0 0 .149-.811zm1.3-.732c0-.22.033-.446.098-.68s.167-.453.305-.657.313-.364.524-.482.382-.15.522-.103.242.153.307.314.098.352.098.57-.033.446-.098.68a2.24 2.24 0 0 1-.307.66c-.14.205-.313.366-.522.483s-.382.15-.522.1-.242-.155-.307-.316-.098-.352-.098-.57zm1.546-.864c0-.285-.05-.498-.15-.64s-.256-.154-.47-.035-.37.306-.47.56a2.19 2.19 0 0 0-.149.808c0 .287.05.502.15.645s.256.154.47.035.37-.306.47-.56a2.2 2.2 0 0 0 .149-.811zm1.3-.732c0-.22.033-.446.098-.68s.167-.453.305-.657.313-.364.524-.482.382-.15.522-.103.242.153.307.314.098.352.098.57-.033.446-.098.68a2.24 2.24 0 0 1-.307.66c-.14.205-.313.366-.522.483s-.382.15-.522.1-.242-.155-.307-.316-.098-.352-.098-.57zm1.546-.864c0-.285-.05-.498-.15-.64s-.256-.154-.47-.035-.37.306-.47.56a2.19 2.19 0 0 0-.149.808c0 .287.05.502.15.645s.256.154.47.035.37-.306.47-.56a2.2 2.2 0 0 0 .149-.811zm1.772-1.838l-.39.645-.182-.09.607-1 .265-.148v2.522l-.302.17v-2.106zm1.4.064c0-.22.033-.446.098-.68s.167-.453.305-.657.313-.364.524-.482.382-.15.522-.103.242.153.307.314.098.352.098.57-.033.446-.098.68a2.24 2.24 0 0 1-.307.66c-.14.205-.313.366-.522.483s-.382.15-.522.1-.242-.155-.307-.316-.098-.352-.098-.57zm1.546-.864c0-.285-.05-.498-.15-.64s-.256-.154-.47-.035-.37.306-.47.56a2.19 2.19 0 0 0-.149.808c0 .287.05.502.15.645s.256.154.47.035.37-.306.47-.56a2.2 2.2 0 0 0 .149-.811zm1.3-.732c0-.22.033-.446.098-.68s.167-.453.305-.657.313-.364.524-.482.382-.15.522-.103.242.153.307.314.098.352.098.57-.033.446-.098.68a2.24 2.24 0 0 1-.307.66c-.14.205-.313.366-.522.483s-.382.15-.522.1-.242-.155-.307-.316-.098-.352-.098-.57zm1.546-.864c0-.285-.05-.498-.15-.64s-.256-.154-.47-.035-.37.306-.47.56a2.19 2.19 0 0 0-.149.808c0 .287.05.502.15.645s.256.154.47.035.37-.306.47-.56a2.2 2.2 0 0 0 .149-.811zm1.3-.732c0-.22.033-.446.098-.68s.167-.453.305-.657.313-.364.524-.482.382-.15.522-.103.242.153.307.314.098.352.098.57-.033.446-.098.68a2.24 2.24 0 0 1-.307.66c-.14.205-.313.366-.522.483s-.382.15-.522.1-.242-.155-.307-.316-.098-.352-.098-.57zm1.546-.864c0-.285-.05-.498-.15-.64s-.256-.154-.47-.035-.37.306-.47.56a2.19 2.19 0 0 0-.149.808c0 .287.05.502.15.645s.256.154.47.035.37-.306.47-.56a2.2 2.2 0 0 0 .149-.811zm1.772-1.838l-.39.645-.182-.09.607-1 .265-.148v2.522l-.302.17v-2.106zm1.4.064c0-.22.033-.446.098-.68s.167-.453.305-.657.313-.364.524-.482.382-.15.522-.103.242.153.307.314.098.352.098.57-.033.446-.098.68a2.24 2.24 0 0 1-.307.66c-.14.205-.313.366-.522.483s-.382.15-.522.1-.242-.155-.307-.316-.098-.352-.098-.57zm1.546-.864c0-.285-.05-.498-.15-.64s-.256-.154-.47-.035-.37.306-.47.56a2.19 2.19 0 0 0-.149.808c0 .287.05.502.15.645s.256.154.47.035.37-.306.47-.56a2.2 2.2 0 0 0 .149-.811zm1.772-1.838l-.39.645-.182-.09.607-1 .265-.148v2.522l-.302.17v-2.106zm1.4.064c0-.22.033-.446.098-.68s.167-.453.305-.657.313-.364.524-.482.382-.15.522-.103.242.153.307.314.098.352.098.57-.033.446-.098.68a2.24 2.24 0 0 1-.307.66c-.14.205-.313.366-.522.483s-.382.15-.522.1-.242-.155-.307-.316-.098-.352-.098-.57zm1.546-.864c0-.285-.05-.498-.15-.64s-.256-.154-.47-.035-.37.306-.47.56a2.19 2.19 0 0 0-.149.808c0 .287.05.502.15.645s.256.154.47.035.37-.306.47-.56a2.2 2.2 0 0 0 .149-.811zm1.772-1.838l-.39.645-.182-.09.607-1 .265-.148v2.522l-.302.17v-2.106z"></path><path id="g" d="M359.71 289.957s.418-1.097.437-1.377c0-.3 2.255-.8 2.255-.8s1.062-.476 2.144-.436c1.064.04 2.5.436 1.787 2.182s-2.368 3.185-3.394 3.604c-1.045.42-1.766-.18-2.184.02-.304.12.057.34-.133.52-.513.5-1.272.52-1.9.638-1.064.2-2.09.22-3.096-.24-.627-.26-.988-.718-.988-1.417 0-1.097-.038-3.372.665-3.552 0 0 1.804 2.275 4.406.858z"></path><path id="h" d="M228.51 380.657l-54.58-31.372 32.67-18.678 54.292 31.328-7.935 4.592z"></path><path id="i" d="M217.185 364.654l-24.426-14.04 14.62-8.36 23.4 13.088c.432.242.587.788.345 1.22-.084.15-.208.272-.36.353l-2.64 1.414-10.94 6.324z"></path><path id="j" d="M215.346 361.504l-17.587-10.11 10.527-6.018 17.494 10.095-2.557 1.48z"></path><path id="k" d="M193.922 350.65l23.043 14.004.837-.412-1.85-12.776-24.986-14.587h-.897z"></path></defs><g transform="translate(5 -19)" fill="none" fill-rule="evenodd"><g class="B"><path d="M13.32 288.536l246.432-129.63a57.38 57.38 0 0 1 53.426 0l246.702 129.773c10.517 5.532 14.558 18.543 9.026 29.06-2 3.8-5.09 6.917-8.876 8.946L314.43 458.366a54.69 54.69 0 0 1-51.385.159L13.29 326.605c-10.508-5.55-14.527-18.568-8.977-29.076 2.027-3.838 5.168-6.973 9.01-8.994z" fill="url(#A)"></path><path d="M.448 301.04v13.61a16.14 16.14 0 0 0 7.965 13.915l212.936 125.06c16.687 9.8 37.35 9.882 54.115.215l215.84-124.47c4.442-2.562 7.18-7.3 7.18-12.427v-18.592L.448 301.04z" fill="url(#B)"></path><path d="M12.69 279.1l209.5-119.287a57.38 57.38 0 0 1 56.944.092l207.837 119.23c10.308 5.913 13.87 19.063 7.957 29.37-1.88 3.28-4.594 6.006-7.864 7.903L278.034 437.726a54.69 54.69 0 0 1-54.748.089l-210.7-121.36C2.298 310.523-1.24 297.367 4.7 287.07c1.91-3.317 4.672-6.065 7.998-7.96z" stroke="#fff" stroke-width="3.586" fill="#f5f6fd"></path><path d="M41.775 309.777l111.975-61.62a21.52 21.52 0 0 1 20.816.037l47.038 26.106c2.165 1.2 2.946 3.93 1.744 6.095-.402.724-.997 1.323-1.72 1.73l-110.763 62.414a21.52 21.52 0 0 1-21.09.02l-48.032-26.944c-2.16-1.21-2.928-3.944-1.716-6.103.41-.73 1.015-1.33 1.748-1.734z" class="J N"></path><path d="M34.07 245.49l40.793 10.303v68.988L34.07 301.488z" class="G"></path></g><g transform="translate(194.552 136.185)"><mask id="l" class="C"><use xlink:href="#D"></use></mask><g class="B"><use fill="#d3712f" transform="matrix(.766044 -.642788 .642788 .766044 -24.112055 52.563196)" xlink:href="#D"></use><path d="M21.065 25.75l55.64 8.99c1.255.203 2.3 1.056 2.77 2.24l23.733 61.053c.718 1.846-.197 3.924-2.043 4.642-.6.23-1.23.298-1.856.2l-55.085-8.65c-1.254-.197-2.31-1.043-2.778-2.224L17.158 30.61c-.73-1.842.174-3.925 2.016-4.654.6-.238 1.254-.31 1.89-.206z" fill="#f7893f" mask="url(#l)" transform="matrix(.766044 -.642788 .642788 .766044 -27.255373 53.70727)"></path></g></g><g class="B"><path fill="#aac8ed" d="M153.3 202.486l40.793 10.303v68.988L153.3 258.483z"></path><path d="M189.372 190.342c-.57.327-1.042.804-1.36 1.38-.956 1.733-.325 3.913 1.4 4.87l66.85 36.82a8.97 8.97 0 0 0 9.056-.234l53.617-33.258c.518-.322.946-.77 1.243-1.303.963-1.73.34-3.912-1.39-4.874l-62.907-34.966a11.66 11.66 0 0 0-11.455.07l-55.065 31.496zm-.89-1.555l55.065-31.496c4.088-2.338 9.1-2.37 13.217-.08l62.907 34.966c2.596 1.443 3.53 4.716 2.086 7.31-.445.8-1.087 1.472-1.864 1.954L266.274 234.7c-3.305 2.05-7.46 2.158-10.867.28l-66.85-36.82c-2.602-1.433-3.55-4.703-2.115-7.303.477-.864 1.182-1.58 2.04-2.07z" class="O"></path><g transform="translate(128.207)"><path d="M40.257 136.236L124.514 35.9l92.158 77.278L130.74 215.5c-1.616 1.925-4.122 2.863-6.606 2.473l-59.266-9.307-25.788-65.19c-.97-2.45-.517-5.233 1.177-7.25z" fill="url(#F)" opacity=".576" transform="matrix(.766044 -.642788 .642788 .766044 -51.762785 111.742863)"></path><g filter="url(#H)" transform="matrix(.766044 -.642788 .642788 .766044 -69.267341 117.553101)"><use fill="#000" filter="url(#I)" xlink:href="#G"></use><use stroke="#ffede1" xlink:href="#G" class="P"></use></g><g opacity=".2" filter="url(#H)" transform="matrix(.766044 -.642788 .642788 .766044 -45.300669 108.829946)"><use fill="#000" filter="url(#I)" xlink:href="#J"></use><use stroke="#ffede1" xlink:href="#J" class="P"></use></g><g fill="url(#K)"><use xlink:href="#b"></use><path d="M82.93 76.156c.743 0 1.345.602 1.345 1.345v55.1h-2.7V77.5c0-.743.602-1.345 1.345-1.345z"></path></g><g fill="url(#L)"><use xlink:href="#b" x="37.656" y="12.544"></use><use xlink:href="#b" x="78.898" y="-6.27"></use><use xlink:href="#b" x="66.346" y="53.758"></use><use xlink:href="#b" x="21.518" y="68.093"></use><use xlink:href="#b" x="-9.86" y="56.445"></use><use xlink:href="#b" x="97.725" y="44.798"></use></g></g><path d="M21.155 248.838l103.808-57.127a21.52 21.52 0 0 1 20.202-.291l59.438 30.516c2.202 1.13 3.07 3.833 1.94 6.035-.4.78-1.022 1.427-1.787 1.858L102.07 287.69a21.52 21.52 0 0 1-20.47.355l-60.348-31.302c-2.198-1.14-3.055-3.846-1.915-6.043.408-.787 1.04-1.436 1.818-1.863z" class="C"></path><path d="M197.24 207.86l10.76 5v26.36l-10.76-5z" class="G"></path><path fill="#97baea" d="M208 212.62l21.517-12.82v26.156L208 238.324z"></path><path d="M197.24 207.724l22.39-12.406 9.885 4.595-21.293 13.324z" class="C"></path><g fill="#e7e9f5"><path d="M21.155 245.254l103.808-57.127a21.52 21.52 0 0 1 20.202-.291l59.438 30.516c2.202 1.13 3.07 3.833 1.94 6.035-.4.78-1.022 1.427-1.787 1.858L102.07 284.108a21.52 21.52 0 0 1-20.47.355L21.252 253.16c-2.198-1.14-3.055-3.846-1.915-6.043.408-.787 1.04-1.436 1.818-1.863z"></path><path d="M113.403 241.53l20.773-11.61c1.266-.708 2.803-.73 4.09-.06l11.895 6.203c.44.23.61.77.38 1.21-.08.152-.2.278-.35.364l-20.548 11.76c-1.278.73-2.84.76-4.143.072l-12.077-6.362c-.438-.23-.606-.773-.375-1.21.08-.153.204-.28.356-.365z" stroke="#96baea" class="P"></path></g><path d="M148.828 284.03l15.505 9.36v18.4l-15.505-9.04z" class="G"></path><path d="M164.333 293.392l28.426-16.14v18.077l-28.426 16.463z" class="Q"></path><path d="M148.828 284.03l29.378-16.14 14.553 9.36-28.426 16.14z" class="C"></path><path d="M336.207 150.072a3.85 3.85 0 0 0 1.947 3.348l101.764 57.928c.813.463 1.846.18 2.31-.634.145-.255.222-.544.222-.838 0-1.797-.974-3.454-2.544-4.328l-101.74-56.627c-.635-.354-1.437-.125-1.79.5-.11.196-.166.416-.166.64z" class="H"></path><path d="M337.103 208.533a4.38 4.38 0 0 0 2.105 3.744l100.56 61.15c.832.506 1.917.242 2.423-.6.168-.276.257-.593.257-.916 0-1.944-1.024-3.745-2.694-4.74L339.22 207.33a1.4 1.4 0 0 0-2.117 1.203z" class="I"></path><use xlink:href="#c" class="K"></use><path d="M445.664 274.13a3.7 3.7 0 0 0 1.68 4.076l4.034 2.426a1.75 1.75 0 0 0 2.651-1.499c0-1.918-1.01-3.694-2.66-4.674l-2.673-1.588a2.05 2.05 0 0 0-3.032 1.259z" class="L"></path><path d="M390.125 196.634a2.93 2.93 0 0 0 1.341 3.386l13.76 7.935c.734.424 1.673.172 2.097-.563.135-.233.205-.498.205-.767a4.58 4.58 0 0 0-2.307-3.976l-12.404-7.088a1.85 1.85 0 0 0-2.691 1.072z" class="K"></path><g class="H"><use xlink:href="#c" x="-109.379" y="-32.253"></use><path d="M336.287 225.538c-.4 1.51.222 3.108 1.54 3.95l12.77 8.157c.757.484 1.763.262 2.246-.495.167-.262.256-.565.256-.876a5.42 5.42 0 0 0-2.503-4.567l-11.423-7.293c-.892-.57-2.078-.308-2.647.584-.107.167-.187.35-.237.54z"></path></g><use xlink:href="#c" x="-103.866" y="-73.467" class="I"></use><use xlink:href="#d" class="H"></use><use xlink:href="#e" class="I"></use><g class="L"><use xlink:href="#e" y="47.486"></use><path d="M361.534 147.802a2.46 2.46 0 0 0 .989 2.914l13.896 8.877a1.25 1.25 0 0 0 1.926-1.055 4.17 4.17 0 0 0-1.926-3.515L363.868 147a1.58 1.58 0 0 0-2.334.792z"></path></g><use xlink:href="#d" x="19.723" y="11.648" class="H"></use><path d="M441.184 240.982a2.46 2.46 0 0 0 .989 2.914l13.896 8.877a1.25 1.25 0 0 0 1.926-1.055 4.17 4.17 0 0 0-1.926-3.515l-12.55-8.013a1.58 1.58 0 0 0-2.334.792z" class="C"></path><g class="I"><use xlink:href="#c" x="-4.482" y="78.845"></use><use xlink:href="#e" x="85.174" y="67.197"></use></g><path d="M375.734 200.87a2.65 2.65 0 0 0 1.132 3.106l58.57 35.766a1.37 1.37 0 0 0 1.879-.454c.13-.215.2-.46.2-.713a4.34 4.34 0 0 0-2.08-3.706l-57.224-34.903c-.795-.485-1.833-.234-2.318.562-.066.108-.12.222-.16.342zm0 47.7c-.396 1.313.144 2.727 1.314 3.442l58.196 35.538a1.49 1.49 0 0 0 2.052-.496c.143-.234.22-.504.22-.778a4.74 4.74 0 0 0-2.272-4.046l-56.85-34.675a1.8 1.8 0 0 0-2.66 1.016zm0-32.032a3.38 3.38 0 0 0 1.498 3.778l57.82 35.3a1.62 1.62 0 0 0 2.462-1.381 5.14 5.14 0 0 0-2.463-4.387l-56.475-34.447c-.903-.55-2.08-.265-2.63.638a1.92 1.92 0 0 0-.212.49z" class="H"></path><path d="M336.283 166.184a2.89 2.89 0 0 0 1.315 3.346l43.847 25.368c.725.42 1.652.172 2.07-.553.133-.23.204-.493.204-.76a4.55 4.55 0 0 0-2.277-3.941l-42.498-24.51a1.83 1.83 0 0 0-2.662 1.048z" class="C"></path><path d="M410.18 209.414c-.396 1.425.22 2.937 1.5 3.677l43.467 25.148c.786.455 1.793.186 2.248-.6.145-.25.22-.535.22-.824 0-1.765-.942-3.395-2.47-4.277l-42.118-24.3c-.93-.537-2.122-.218-2.66.714-.082.142-.145.293-.19.45z" class="H"></path><path fill="url(#M)" d="M69.034 254.45L43.93 233.396l46.172-25.087 1.793 30.9z"></path><path d="M69.034 254.9l73.07-42.558V135.29c0-1.98-1.606-3.586-3.586-3.586-.64 0-1.268.17-1.82.496l-59.71 35.144a16.14 16.14 0 0 0-7.952 13.908V254.9z" class="I"></path><path d="M69.034 254.9l73.07-42.558v-15.025l-73.07 43.006z" class="L"></path><path d="M118.345 167.543l.448 3.584 14.345 4.032-9.414 13.44v4.928l14.345-20.607zm-22.853 15.3V177.4L78.45 200.695l19.948 3.584-1.12-3.584-13-1.792zm14.634-13.946l3.122-1.344-9.365 36.286-3.47 1.792z" class="C"></path></g><g style="mix-blend-mode:overlay" fill="#091d3c" opacity=".47"><path d="M73.36 179.114c0-.22.033-.446.098-.68s.167-.453.305-.656a1.52 1.52 0 0 1 .522-.481c.208-.116.38-.15.52-.102s.24.153.306.315a1.52 1.52 0 0 1 .098.571c0 .22-.033.446-.098.68s-.167.454-.306.66-.312.366-.52.482-.38.15-.52.1-.24-.155-.306-.317a1.52 1.52 0 0 1-.098-.571zm1.54-.86c0-.285-.05-.5-.15-.64s-.255-.154-.468-.035a1.05 1.05 0 0 0-.468.558c-.1.253-.15.522-.15.807s.05.502.15.645.255.154.468.035a1.05 1.05 0 0 0 .468-.558c.1-.253.15-.524.15-.81zm1.306-.73c0-.22.033-.446.098-.68s.167-.453.305-.656a1.52 1.52 0 0 1 .522-.481c.208-.116.38-.15.52-.102s.24.153.306.315a1.52 1.52 0 0 1 .098.571c0 .22-.033.446-.098.68s-.167.454-.306.66-.312.366-.52.482-.38.15-.52.1-.24-.155-.306-.317a1.52 1.52 0 0 1-.098-.571zm1.54-.86c0-.285-.05-.5-.15-.64s-.255-.154-.468-.035a1.05 1.05 0 0 0-.468.558c-.1.253-.15.522-.15.807s.05.502.15.645.255.154.468.035a1.05 1.05 0 0 0 .468-.558c.1-.253.15-.524.15-.81zm1.306-.73c0-.22.033-.446.098-.68s.167-.453.305-.656a1.52 1.52 0 0 1 .522-.481c.208-.116.38-.15.52-.102s.24.153.306.315a1.52 1.52 0 0 1 .098.571c0 .22-.033.446-.098.68s-.167.454-.306.66-.312.366-.52.482-.38.15-.52.1-.24-.155-.306-.317a1.52 1.52 0 0 1-.098-.571zm1.54-.86c0-.285-.05-.5-.15-.64s-.255-.154-.468-.035a1.05 1.05 0 0 0-.468.558c-.1.253-.15.522-.15.807s.05.502.15.645.255.154.468.035a1.05 1.05 0 0 0 .468-.558c.1-.253.15-.524.15-.81zm1.767-1.835l-.388.644-.18-.092.605-.99.265-.148v2.522l-.3.168v-2.106zm1.857-1.038l-.388.644-.18-.092.605-.99.265-.148v2.522l-.3.168v-2.106zm1.397.066c0-.22.033-.446.098-.68s.167-.453.305-.656a1.52 1.52 0 0 1 .522-.481c.208-.116.38-.15.52-.102s.24.153.306.315a1.52 1.52 0 0 1 .098.571c0 .22-.033.446-.098.68s-.167.454-.306.66-.312.366-.52.482-.38.15-.52.1-.24-.155-.306-.317a1.52 1.52 0 0 1-.098-.571zm1.54-.86c0-.285-.05-.5-.15-.64s-.255-.154-.468-.035a1.05 1.05 0 0 0-.468.558c-.1.253-.15.522-.15.807s.05.502.15.645.255.154.468.035a1.05 1.05 0 0 0 .468-.558c.1-.253.15-.524.15-.81zm1.767-1.835l-.388.644-.18-.092.605-.99.265-.148v2.522l-.3.168v-2.106zm1.397.066c0-.22.033-.446.098-.68s.167-.453.305-.656a1.52 1.52 0 0 1 .522-.481c.208-.116.38-.15.52-.102s.24.153.306.315a1.52 1.52 0 0 1 .098.571c0 .22-.033.446-.098.68s-.167.454-.306.66-.312.366-.52.482-.38.15-.52.1-.24-.155-.306-.317a1.52 1.52 0 0 1-.098-.571zm1.54-.86c0-.285-.05-.5-.15-.64s-.255-.154-.468-.035a1.05 1.05 0 0 0-.468.558c-.1.253-.15.522-.15.807s.05.502.15.645.255.154.468.035a1.05 1.05 0 0 0 .468-.558c.1-.253.15-.524.15-.81zm1.306-.73c0-.22.033-.446.098-.68s.167-.453.305-.656a1.52 1.52 0 0 1 .522-.481c.208-.116.38-.15.52-.102s.24.153.306.315a1.52 1.52 0 0 1 .098.571c0 .22-.033.446-.098.68s-.167.454-.306.66-.312.366-.52.482-.38.15-.52.1-.24-.155-.306-.317a1.52 1.52 0 0 1-.098-.571zm1.54-.86c0-.285-.05-.5-.15-.64s-.255-.154-.468-.035a1.05 1.05 0 0 0-.468.558c-.1.253-.15.522-.15.807s.05.502.15.645.255.154.468.035a1.05 1.05 0 0 0 .468-.558c.1-.253.15-.524.15-.81zm1.767-1.835l-.388.644-.18-.092.605-.99.265-.148v2.522l-.3.168v-2.106zm1.397.066c0-.22.033-.446.098-.68s.167-.453.305-.656a1.52 1.52 0 0 1 .522-.481c.208-.116.38-.15.52-.102s.24.153.306.315a1.52 1.52 0 0 1 .098.571c0 .22-.033.446-.098.68s-.167.454-.306.66-.312.366-.52.482-.38.15-.52.1-.24-.155-.306-.317a1.52 1.52 0 0 1-.098-.571zm1.54-.86c0-.285-.05-.5-.15-.64s-.255-.154-.468-.035a1.05 1.05 0 0 0-.468.558c-.1.253-.15.522-.15.807s.05.502.15.645.255.154.468.035a1.05 1.05 0 0 0 .468-.558c.1-.253.15-.524.15-.81zm1.767-1.835l-.388.644-.18-.092.605-.99.265-.148v2.522l-.3.168v-2.106zm1.857-1.038l-.388.644-.18-.092.605-.99.265-.148v2.522l-.3.168v-2.106zm1.857-1.038l-.388.644-.18-.092.605-.99.265-.148v2.522l-.3.168v-2.106zm1.857-1.038l-.388.644-.18-.092.605-.99.265-.148v2.522l-.3.168v-2.106zm1.397.066c0-.22.033-.446.098-.68s.167-.453.305-.656a1.52 1.52 0 0 1 .522-.481c.208-.116.38-.15.52-.102s.24.153.306.315a1.52 1.52 0 0 1 .098.571c0 .22-.033.446-.098.68s-.167.454-.306.66-.312.366-.52.482-.38.15-.52.1-.24-.155-.306-.317a1.52 1.52 0 0 1-.098-.571zm1.54-.86c0-.285-.05-.5-.15-.64s-.255-.154-.468-.035a1.05 1.05 0 0 0-.468.558c-.1.253-.15.522-.15.807s.05.502.15.645.255.154.468.035a1.05 1.05 0 0 0 .468-.558c.1-.253.15-.524.15-.81zm1.767-1.835l-.388.644-.18-.092.605-.99.265-.148v2.522l-.3.168v-2.106zm1.397.066c0-.22.033-.446.098-.68s.167-.453.305-.656a1.52 1.52 0 0 1 .522-.481c.208-.116.38-.15.52-.102s.24.153.306.315a1.52 1.52 0 0 1 .098.571c0 .22-.033.446-.098.68s-.167.454-.306.66-.312.366-.52.482-.38.15-.52.1-.24-.155-.306-.317a1.52 1.52 0 0 1-.098-.571zm1.54-.86c0-.285-.05-.5-.15-.64s-.255-.154-.468-.035a1.05 1.05 0 0 0-.468.558c-.1.253-.15.522-.15.807s.05.502.15.645.255.154.468.035a1.05 1.05 0 0 0 .468-.558c.1-.253.15-.524.15-.81zm1.767-1.835l-.388.644-.18-.092.605-.99.265-.148v2.522l-.3.168v-2.106zm1.397.066c0-.22.033-.446.098-.68s.167-.453.305-.656a1.52 1.52 0 0 1 .522-.481c.208-.116.38-.15.52-.102s.24.153.306.315a1.52 1.52 0 0 1 .098.571c0 .22-.033.446-.098.68s-.167.454-.306.66-.312.366-.52.482-.38.15-.52.1-.24-.155-.306-.317a1.52 1.52 0 0 1-.098-.571zm1.54-.86c0-.285-.05-.5-.15-.64s-.255-.154-.468-.035a1.05 1.05 0 0 0-.468.558c-.1.253-.15.522-.15.807s.05.502.15.645.255.154.468.035a1.05 1.05 0 0 0 .468-.558c.1-.253.15-.524.15-.81zm1.767-1.835l-.388.644-.18-.092.605-.99.265-.148v2.522l-.3.168v-2.106zm1.397.066c0-.22.033-.446.098-.68s.167-.453.305-.656a1.52 1.52 0 0 1 .522-.481c.208-.116.38-.15.52-.102s.24.153.306.315a1.52 1.52 0 0 1 .098.571c0 .22-.033.446-.098.68s-.167.454-.306.66-.312.366-.52.482-.38.15-.52.1-.24-.155-.306-.317a1.52 1.52 0 0 1-.098-.571zm1.54-.86c0-.285-.05-.5-.15-.64s-.255-.154-.468-.035a1.05 1.05 0 0 0-.468.558c-.1.253-.15.522-.15.807s.05.502.15.645.255.154.468.035a1.05 1.05 0 0 0 .468-.558c.1-.253.15-.524.15-.81zm1.767-1.835l-.388.644-.18-.092.605-.99.265-.148v2.522l-.3.168v-2.106zm1.857-1.038l-.388.644-.18-.092.605-.99.265-.148v2.522l-.3.168v-2.106zm1.397.066c0-.22.033-.446.098-.68s.167-.453.305-.656a1.52 1.52 0 0 1 .522-.481c.208-.116.38-.15.52-.102s.24.153.306.315a1.52 1.52 0 0 1 .098.571c0 .22-.033.446-.098.68s-.167.454-.306.66-.312.366-.52.482-.38.15-.52.1-.24-.155-.306-.317a1.52 1.52 0 0 1-.098-.571zm1.54-.86c0-.285-.05-.5-.15-.64s-.255-.154-.468-.035a1.05 1.05 0 0 0-.468.558c-.1.253-.15.522-.15.807s.05.502.15.645.255.154.468.035a1.05 1.05 0 0 0 .468-.558c.1-.253.15-.524.15-.81zm1.767-1.835l-.388.644-.18-.092.605-.99.265-.148v2.522l-.3.168v-2.106zm1.397.066c0-.22.033-.446.098-.68s.167-.453.305-.656a1.52 1.52 0 0 1 .522-.481c.208-.116.38-.15.52-.102s.24.153.306.315a1.52 1.52 0 0 1 .098.571c0 .22-.033.446-.098.68s-.167.454-.306.66-.312.366-.52.482-.38.15-.52.1-.24-.155-.306-.317a1.52 1.52 0 0 1-.098-.571zm1.54-.86c0-.285-.05-.5-.15-.64s-.255-.154-.468-.035a1.05 1.05 0 0 0-.468.558c-.1.253-.15.522-.15.807s.05.502.15.645.255.154.468.035a1.05 1.05 0 0 0 .468-.558c.1-.253.15-.524.15-.81zm1.306-.73c0-.22.033-.446.098-.68s.167-.453.305-.656a1.52 1.52 0 0 1 .522-.481c.208-.116.38-.15.52-.102s.24.153.306.315a1.52 1.52 0 0 1 .098.571c0 .22-.033.446-.098.68s-.167.454-.306.66-.312.366-.52.482-.38.15-.52.1-.24-.155-.306-.317a1.52 1.52 0 0 1-.098-.571zm1.54-.86c0-.285-.05-.5-.15-.64s-.255-.154-.468-.035a1.05 1.05 0 0 0-.468.558c-.1.253-.15.522-.15.807s.05.502.15.645.255.154.468.035a1.05 1.05 0 0 0 .468-.558c.1-.253.15-.524.15-.81z" style="mix-blend-mode:overlay"></path><path d="M73.36 186.28c0-.22.033-.446.098-.68s.167-.453.305-.656a1.52 1.52 0 0 1 .522-.481c.208-.116.38-.15.52-.102s.24.153.306.315a1.52 1.52 0 0 1 .098.571c0 .22-.033.446-.098.68s-.167.454-.306.66-.312.366-.52.482-.38.15-.52.1-.24-.155-.306-.317a1.52 1.52 0 0 1-.098-.571zm1.54-.86c0-.285-.05-.5-.15-.64s-.255-.154-.468-.035a1.05 1.05 0 0 0-.468.558c-.1.253-.15.522-.15.807s.05.502.15.645.255.154.468.035a1.05 1.05 0 0 0 .468-.558c.1-.253.15-.524.15-.81zm1.306-.73c0-.22.033-.446.098-.68s.167-.453.305-.656a1.52 1.52 0 0 1 .522-.481c.208-.116.38-.15.52-.102s.24.153.306.315a1.52 1.52 0 0 1 .098.571c0 .22-.033.446-.098.68s-.167.454-.306.66-.312.366-.52.482-.38.15-.52.1-.24-.155-.306-.317a1.52 1.52 0 0 1-.098-.571zm1.54-.86c0-.285-.05-.5-.15-.64s-.255-.154-.468-.035a1.05 1.05 0 0 0-.468.558c-.1.253-.15.522-.15.807s.05.502.15.645.255.154.468.035a1.05 1.05 0 0 0 .468-.558c.1-.253.15-.524.15-.81zm1.306-.73c0-.22.033-.446.098-.68s.167-.453.305-.656a1.52 1.52 0 0 1 .522-.481c.208-.116.38-.15.52-.102s.24.153.306.315a1.52 1.52 0 0 1 .098.571c0 .22-.033.446-.098.68s-.167.454-.306.66-.312.366-.52.482-.38.15-.52.1-.24-.155-.306-.317a1.52 1.52 0 0 1-.098-.571zm1.54-.86c0-.285-.05-.5-.15-.64s-.255-.154-.468-.035a1.05 1.05 0 0 0-.468.558c-.1.253-.15.522-.15.807s.05.502.15.645.255.154.468.035a1.05 1.05 0 0 0 .468-.558c.1-.253.15-.524.15-.81zm1.767-1.835l-.388.644-.18-.092.605-.99.265-.148v2.522l-.3.168V180.4zm1.857-1.038l-.388.644-.18-.092.605-.99.265-.148v2.522l-.3.168v-2.106zm1.397.066c0-.22.033-.446.098-.68s.167-.453.305-.656a1.52 1.52 0 0 1 .522-.481c.208-.116.38-.15.52-.102s.24.153.306.315a1.52 1.52 0 0 1 .098.571c0 .22-.033.446-.098.68s-.167.454-.306.66-.312.366-.52.482-.38.15-.52.1-.24-.155-.306-.317a1.52 1.52 0 0 1-.098-.571zm1.54-.86c0-.285-.05-.5-.15-.64s-.255-.154-.468-.035a1.05 1.05 0 0 0-.468.558c-.1.253-.15.522-.15.807s.05.502.15.645.255.154.468.035a1.05 1.05 0 0 0 .468-.558c.1-.253.15-.524.15-.81zm1.767-1.835l-.388.644-.18-.092.605-.99.265-.148v2.522l-.3.168v-2.106zm1.397.066c0-.22.033-.446.098-.68s.167-.453.305-.656a1.52 1.52 0 0 1 .522-.481c.208-.116.38-.15.52-.102s.24.153.306.315a1.52 1.52 0 0 1 .098.571c0 .22-.033.446-.098.68s-.167.454-.306.66-.312.366-.52.482-.38.15-.52.1-.24-.155-.306-.317a1.52 1.52 0 0 1-.098-.571zm1.54-.86c0-.285-.05-.5-.15-.64s-.255-.154-.468-.035a1.05 1.05 0 0 0-.468.558c-.1.253-.15.522-.15.807s.05.502.15.645.255.154.468.035a1.05 1.05 0 0 0 .468-.558c.1-.253.15-.524.15-.81zm1.306-.73c0-.22.033-.446.098-.68s.167-.453.305-.656a1.52 1.52 0 0 1 .522-.481c.208-.116.38-.15.52-.102s.24.153.306.315a1.52 1.52 0 0 1 .098.571c0 .22-.033.446-.098.68s-.167.454-.306.66-.312.366-.52.482-.38.15-.52.1-.24-.155-.306-.317a1.52 1.52 0 0 1-.098-.571zm1.54-.86c0-.285-.05-.5-.15-.64s-.255-.154-.468-.035a1.05 1.05 0 0 0-.468.558c-.1.253-.15.522-.15.807s.05.502.15.645.255.154.468.035a1.05 1.05 0 0 0 .468-.558c.1-.253.15-.524.15-.81zm1.767-1.835l-.388.644-.18-.092.605-.99.265-.148v2.522l-.3.168v-2.106zm1.397.066c0-.22.033-.446.098-.68s.167-.453.305-.656a1.52 1.52 0 0 1 .522-.481c.208-.116.38-.15.52-.102s.24.153.306.315a1.52 1.52 0 0 1 .098.571c0 .22-.033.446-.098.68s-.167.454-.306.66-.312.366-.52.482-.38.15-.52.1-.24-.155-.306-.317a1.52 1.52 0 0 1-.098-.571zm1.54-.86c0-.285-.05-.5-.15-.64s-.255-.154-.468-.035a1.05 1.05 0 0 0-.468.558c-.1.253-.15.522-.15.807s.05.502.15.645.255.154.468.035a1.05 1.05 0 0 0 .468-.558c.1-.253.15-.524.15-.81zm1.767-1.835l-.388.644-.18-.092.605-.99.265-.148v2.522l-.3.168v-2.106zm1.857-1.038l-.388.644-.18-.092.605-.99.265-.148v2.522l-.3.168v-2.106zm1.857-1.038l-.388.644-.18-.092.605-.99.265-.148v2.522l-.3.168v-2.106zm1.857-1.038l-.388.644-.18-.092.605-.99.265-.148v2.522l-.3.168v-2.106zm1.397.066c0-.22.033-.446.098-.68s.167-.453.305-.656a1.52 1.52 0 0 1 .522-.481c.208-.116.38-.15.52-.102s.24.153.306.315a1.52 1.52 0 0 1 .098.571c0 .22-.033.446-.098.68s-.167.454-.306.66-.312.366-.52.482-.38.15-.52.1-.24-.155-.306-.317a1.52 1.52 0 0 1-.098-.571zm1.54-.86c0-.285-.05-.5-.15-.64s-.255-.154-.468-.035a1.05 1.05 0 0 0-.468.558c-.1.253-.15.522-.15.807s.05.502.15.645.255.154.468.035a1.05 1.05 0 0 0 .468-.558c.1-.253.15-.524.15-.81zm1.767-1.835l-.388.644-.18-.092.605-.99.265-.148v2.522l-.3.168v-2.106zm1.397.066c0-.22.033-.446.098-.68s.167-.453.305-.656a1.52 1.52 0 0 1 .522-.481c.208-.116.38-.15.52-.102s.24.153.306.315a1.52 1.52 0 0 1 .098.571c0 .22-.033.446-.098.68s-.167.454-.306.66-.312.366-.52.482-.38.15-.52.1-.24-.155-.306-.317a1.52 1.52 0 0 1-.098-.571zm1.54-.86c0-.285-.05-.5-.15-.64s-.255-.154-.468-.035a1.05 1.05 0 0 0-.468.558c-.1.253-.15.522-.15.807s.05.502.15.645.255.154.468.035a1.05 1.05 0 0 0 .468-.558c.1-.253.15-.524.15-.81zm1.767-1.835l-.388.644-.18-.092.605-.99.265-.148v2.522l-.3.168v-2.106zm1.397.066c0-.22.033-.446.098-.68s.167-.453.305-.656a1.52 1.52 0 0 1 .522-.481c.208-.116.38-.15.52-.102s.24.153.306.315a1.52 1.52 0 0 1 .098.571c0 .22-.033.446-.098.68s-.167.454-.306.66-.312.366-.52.482-.38.15-.52.1-.24-.155-.306-.317a1.52 1.52 0 0 1-.098-.571zm1.54-.86c0-.285-.05-.5-.15-.64s-.255-.154-.468-.035a1.05 1.05 0 0 0-.468.558c-.1.253-.15.522-.15.807s.05.502.15.645.255.154.468.035a1.05 1.05 0 0 0 .468-.558c.1-.253.15-.524.15-.81zm1.767-1.835l-.388.644-.18-.092.605-.99.265-.148v2.522l-.3.168v-2.106zm1.397.066c0-.22.033-.446.098-.68s.167-.453.305-.656a1.52 1.52 0 0 1 .522-.481c.208-.116.38-.15.52-.102s.24.153.306.315a1.52 1.52 0 0 1 .098.571c0 .22-.033.446-.098.68s-.167.454-.306.66-.312.366-.52.482-.38.15-.52.1-.24-.155-.306-.317a1.52 1.52 0 0 1-.098-.571zm1.54-.86c0-.285-.05-.5-.15-.64s-.255-.154-.468-.035a1.05 1.05 0 0 0-.468.558c-.1.253-.15.522-.15.807s.05.502.15.645.255.154.468.035a1.05 1.05 0 0 0 .468-.558c.1-.253.15-.524.15-.81zm1.767-1.835l-.388.644-.18-.092.605-.99.265-.148v2.522l-.3.168v-2.106zm1.857-1.038l-.388.644-.18-.092.605-.99.265-.148v2.522l-.3.168v-2.106zm1.397.066c0-.22.033-.446.098-.68s.167-.453.305-.656a1.52 1.52 0 0 1 .522-.481c.208-.116.38-.15.52-.102s.24.153.306.315a1.52 1.52 0 0 1 .098.571c0 .22-.033.446-.098.68s-.167.454-.306.66-.312.366-.52.482-.38.15-.52.1-.24-.155-.306-.317a1.52 1.52 0 0 1-.098-.571zm1.54-.86c0-.285-.05-.5-.15-.64s-.255-.154-.468-.035a1.05 1.05 0 0 0-.468.558c-.1.253-.15.522-.15.807s.05.502.15.645.255.154.468.035a1.05 1.05 0 0 0 .468-.558c.1-.253.15-.524.15-.81zm1.767-1.835l-.388.644-.18-.092.605-.99.265-.148v2.522l-.3.168v-2.106zm1.397.066c0-.22.033-.446.098-.68s.167-.453.305-.656a1.52 1.52 0 0 1 .522-.481c.208-.116.38-.15.52-.102s.24.153.306.315a1.52 1.52 0 0 1 .098.571c0 .22-.033.446-.098.68s-.167.454-.306.66-.312.366-.52.482-.38.15-.52.1-.24-.155-.306-.317a1.52 1.52 0 0 1-.098-.571zm1.54-.86c0-.285-.05-.5-.15-.64s-.255-.154-.468-.035a1.05 1.05 0 0 0-.468.558c-.1.253-.15.522-.15.807s.05.502.15.645.255.154.468.035a1.05 1.05 0 0 0 .468-.558c.1-.253.15-.524.15-.81zm1.306-.73c0-.22.033-.446.098-.68s.167-.453.305-.656a1.52 1.52 0 0 1 .522-.481c.208-.116.38-.15.52-.102s.24.153.306.315a1.52 1.52 0 0 1 .098.571c0 .22-.033.446-.098.68s-.167.454-.306.66-.312.366-.52.482-.38.15-.52.1-.24-.155-.306-.317a1.52 1.52 0 0 1-.098-.571zm1.54-.86c0-.285-.05-.5-.15-.64s-.255-.154-.468-.035a1.05 1.05 0 0 0-.468.558c-.1.253-.15.522-.15.807s.05.502.15.645.255.154.468.035a1.05 1.05 0 0 0 .468-.558c.1-.253.15-.524.15-.81z" style="mix-blend-mode:overlay"></path><path d="M73.36 193.444c0-.22.033-.446.098-.68s.168-.454.306-.657a1.53 1.53 0 0 1 .525-.482c.21-.117.383-.15.523-.103a.51.51 0 0 1 .308.314 1.51 1.51 0 0 1 .098.571c0 .22-.033.446-.098.68a2.24 2.24 0 0 1-.308.66 1.53 1.53 0 0 1-.523.483c-.21.117-.383.15-.523.1s-.242-.155-.308-.316a1.51 1.51 0 0 1-.098-.571zm1.548-.865c0-.285-.05-.498-.15-.64s-.256-.154-.47-.034-.37.306-.47.56a2.19 2.19 0 0 0-.149.808c0 .287.05.502.15.644s.256.154.47.034.37-.306.47-.56a2.2 2.2 0 0 0 .149-.811zm1.775-1.84l-.4.645-.182-.09.608-1 .266-.15v2.522l-.302.17v-2.106zm1.404.063c0-.22.033-.446.098-.68s.168-.454.306-.657a1.53 1.53 0 0 1 .525-.482c.21-.117.383-.15.523-.103a.51.51 0 0 1 .308.314 1.51 1.51 0 0 1 .098.571c0 .22-.033.446-.098.68a2.24 2.24 0 0 1-.308.66 1.53 1.53 0 0 1-.523.483c-.21.117-.383.15-.523.1s-.242-.155-.308-.316a1.51 1.51 0 0 1-.098-.571zm1.548-.865c0-.285-.05-.498-.15-.64s-.256-.154-.47-.034-.37.306-.47.56a2.19 2.19 0 0 0-.149.808c0 .287.05.502.15.644s.256.154.47.034.37-.306.47-.56a2.2 2.2 0 0 0 .149-.811zm1.313-.734c0-.22.033-.446.098-.68s.168-.454.306-.657a1.53 1.53 0 0 1 .525-.482c.21-.117.383-.15.523-.103a.51.51 0 0 1 .308.314 1.51 1.51 0 0 1 .098.571c0 .22-.033.446-.098.68a2.24 2.24 0 0 1-.308.66 1.53 1.53 0 0 1-.523.483c-.21.117-.383.15-.523.1s-.242-.155-.308-.316a1.51 1.51 0 0 1-.098-.571zm1.548-.865c0-.285-.05-.498-.15-.64s-.256-.154-.47-.034-.37.306-.47.56a2.19 2.19 0 0 0-.149.808c0 .287.05.502.15.644s.256.154.47.034.37-.306.47-.56a2.2 2.2 0 0 0 .149-.811zm1.775-1.84l-.4.645-.182-.09.608-1 .266-.15v2.522l-.302.17V186.5zm1.404.063c0-.22.033-.446.098-.68s.168-.454.306-.657a1.53 1.53 0 0 1 .525-.482c.21-.117.383-.15.523-.103a.51.51 0 0 1 .308.314 1.51 1.51 0 0 1 .098.571c0 .22-.033.446-.098.68a2.24 2.24 0 0 1-.308.66 1.53 1.53 0 0 1-.523.483c-.21.117-.383.15-.523.1s-.242-.155-.308-.316a1.51 1.51 0 0 1-.098-.571zm1.548-.865c0-.285-.05-.498-.15-.64s-.256-.154-.47-.034-.37.306-.47.56a2.19 2.19 0 0 0-.149.808c0 .287.05.502.15.644s.256.154.47.034.37-.306.47-.56a2.2 2.2 0 0 0 .149-.811zm1.775-1.84l-.4.645-.182-.09.608-1 .266-.15v2.522l-.302.17v-2.106zm1.404.063c0-.22.033-.446.098-.68s.168-.454.306-.657a1.53 1.53 0 0 1 .525-.482c.21-.117.383-.15.523-.103a.51.51 0 0 1 .308.314 1.51 1.51 0 0 1 .098.571c0 .22-.033.446-.098.68a2.24 2.24 0 0 1-.308.66 1.53 1.53 0 0 1-.523.483c-.21.117-.383.15-.523.1s-.242-.155-.308-.316a1.51 1.51 0 0 1-.098-.571zm1.548-.865c0-.285-.05-.498-.15-.64s-.256-.154-.47-.034-.37.306-.47.56a2.19 2.19 0 0 0-.149.808c0 .287.05.502.15.644s.256.154.47.034.37-.306.47-.56a2.2 2.2 0 0 0 .149-.811zm1.775-1.84l-.4.645-.182-.09.608-1 .266-.15v2.522l-.302.17v-2.106zm1.404.063c0-.22.033-.446.098-.68s.168-.454.306-.657a1.53 1.53 0 0 1 .525-.482c.21-.117.383-.15.523-.103a.51.51 0 0 1 .308.314 1.51 1.51 0 0 1 .098.571c0 .22-.033.446-.098.68a2.24 2.24 0 0 1-.308.66 1.53 1.53 0 0 1-.523.483c-.21.117-.383.15-.523.1s-.242-.155-.308-.316a1.51 1.51 0 0 1-.098-.571zm1.548-.865c0-.285-.05-.498-.15-.64s-.256-.154-.47-.034-.37.306-.47.56a2.19 2.19 0 0 0-.149.808c0 .287.05.502.15.644s.256.154.47.034.37-.306.47-.56a2.2 2.2 0 0 0 .149-.811zm1.775-1.84l-.4.645-.182-.09.608-1 .266-.15v2.522l-.302.17v-2.106zm1.404.063c0-.22.033-.446.098-.68s.168-.454.306-.657a1.53 1.53 0 0 1 .525-.482c.21-.117.383-.15.523-.103a.51.51 0 0 1 .308.314 1.51 1.51 0 0 1 .098.571c0 .22-.033.446-.098.68a2.24 2.24 0 0 1-.308.66 1.53 1.53 0 0 1-.523.483c-.21.117-.383.15-.523.1s-.242-.155-.308-.316a1.51 1.51 0 0 1-.098-.571zm1.548-.865c0-.285-.05-.498-.15-.64s-.256-.154-.47-.034-.37.306-.47.56a2.19 2.19 0 0 0-.149.808c0 .287.05.502.15.644s.256.154.47.034.37-.306.47-.56a2.2 2.2 0 0 0 .149-.811zm1.775-1.84l-.4.645-.182-.09.608-1 .266-.15v2.522l-.302.17v-2.106zm1.866-1.043l-.4.645-.182-.09.608-1 .266-.15v2.522l-.302.17v-2.106zm1.404.063c0-.22.033-.446.098-.68s.168-.454.306-.657a1.53 1.53 0 0 1 .525-.482c.21-.117.383-.15.523-.103a.51.51 0 0 1 .308.314 1.51 1.51 0 0 1 .098.571c0 .22-.033.446-.098.68a2.24 2.24 0 0 1-.308.66 1.53 1.53 0 0 1-.523.483c-.21.117-.383.15-.523.1s-.242-.155-.308-.316a1.51 1.51 0 0 1-.098-.571zm1.548-.865c0-.285-.05-.498-.15-.64s-.256-.154-.47-.034-.37.306-.47.56a2.19 2.19 0 0 0-.149.808c0 .287.05.502.15.644s.256.154.47.034.37-.306.47-.56a2.2 2.2 0 0 0 .149-.811zm1.775-1.84l-.4.645-.182-.09.608-1 .266-.15v2.522l-.302.17v-2.106zm1.404.063c0-.22.033-.446.098-.68s.168-.454.306-.657a1.53 1.53 0 0 1 .525-.482c.21-.117.383-.15.523-.103a.51.51 0 0 1 .308.314 1.51 1.51 0 0 1 .098.571c0 .22-.033.446-.098.68a2.24 2.24 0 0 1-.308.66 1.53 1.53 0 0 1-.523.483c-.21.117-.383.15-.523.1s-.242-.155-.308-.316a1.51 1.51 0 0 1-.098-.571zm1.548-.865c0-.285-.05-.498-.15-.64s-.256-.154-.47-.034-.37.306-.47.56a2.19 2.19 0 0 0-.149.808c0 .287.05.502.15.644s.256.154.47.034.37-.306.47-.56a2.2 2.2 0 0 0 .149-.811zm1.775-1.84l-.4.645-.182-.09.608-1 .266-.15v2.522l-.302.17v-2.106zm1.404.063c0-.22.033-.446.098-.68s.168-.454.306-.657a1.53 1.53 0 0 1 .525-.482c.21-.117.383-.15.523-.103a.51.51 0 0 1 .308.314 1.51 1.51 0 0 1 .098.571c0 .22-.033.446-.098.68a2.24 2.24 0 0 1-.308.66 1.53 1.53 0 0 1-.523.483c-.21.117-.383.15-.523.1s-.242-.155-.308-.316a1.51 1.51 0 0 1-.098-.571zm1.548-.865c0-.285-.05-.498-.15-.64s-.256-.154-.47-.034-.37.306-.47.56a2.19 2.19 0 0 0-.149.808c0 .287.05.502.15.644s.256.154.47.034.37-.306.47-.56a2.2 2.2 0 0 0 .149-.811zm1.313-.734c0-.22.033-.446.098-.68s.168-.454.306-.657a1.53 1.53 0 0 1 .525-.482c.21-.117.383-.15.523-.103a.51.51 0 0 1 .308.314 1.51 1.51 0 0 1 .098.571c0 .22-.033.446-.098.68a2.24 2.24 0 0 1-.308.66 1.53 1.53 0 0 1-.523.483c-.21.117-.383.15-.523.1s-.242-.155-.308-.316a1.51 1.51 0 0 1-.098-.571zm1.548-.865c0-.285-.05-.498-.15-.64s-.256-.154-.47-.034-.37.306-.47.56a2.19 2.19 0 0 0-.149.808c0 .287.05.502.15.644s.256.154.47.034.37-.306.47-.56a2.2 2.2 0 0 0 .149-.811zm1.775-1.84l-.4.645-.182-.09.608-1 .266-.15v2.522l-.302.17v-2.106zm1.404.063c0-.22.033-.446.098-.68s.168-.454.306-.657a1.53 1.53 0 0 1 .525-.482c.21-.117.383-.15.523-.103a.51.51 0 0 1 .308.314 1.51 1.51 0 0 1 .098.571c0 .22-.033.446-.098.68a2.24 2.24 0 0 1-.308.66 1.53 1.53 0 0 1-.523.483c-.21.117-.383.15-.523.1s-.242-.155-.308-.316a1.51 1.51 0 0 1-.098-.571zm1.548-.865c0-.285-.05-.498-.15-.64s-.256-.154-.47-.034-.37.306-.47.56a2.19 2.19 0 0 0-.149.808c0 .287.05.502.15.644s.256.154.47.034.37-.306.47-.56a2.2 2.2 0 0 0 .149-.811zm1.775-1.84l-.4.645-.182-.09.608-1 .266-.15v2.522l-.302.17v-2.106zm1.404.063c0-.22.033-.446.098-.68s.168-.454.306-.657a1.53 1.53 0 0 1 .525-.482c.21-.117.383-.15.523-.103a.51.51 0 0 1 .308.314 1.51 1.51 0 0 1 .098.571c0 .22-.033.446-.098.68a2.24 2.24 0 0 1-.308.66 1.53 1.53 0 0 1-.523.483c-.21.117-.383.15-.523.1s-.242-.155-.308-.316a1.51 1.51 0 0 1-.098-.571zm1.548-.865c0-.285-.05-.498-.15-.64s-.256-.154-.47-.034-.37.306-.47.56a2.19 2.19 0 0 0-.149.808c0 .287.05.502.15.644s.256.154.47.034.37-.306.47-.56a2.2 2.2 0 0 0 .149-.811zm1.313-.734c0-.22.033-.446.098-.68s.168-.454.306-.657a1.53 1.53 0 0 1 .525-.482c.21-.117.383-.15.523-.103a.51.51 0 0 1 .308.314 1.51 1.51 0 0 1 .098.571c0 .22-.033.446-.098.68a2.24 2.24 0 0 1-.308.66 1.53 1.53 0 0 1-.523.483c-.21.117-.383.15-.523.1s-.242-.155-.308-.316a1.51 1.51 0 0 1-.098-.571zm1.548-.865c0-.285-.05-.498-.15-.64s-.256-.154-.47-.034-.37.306-.47.56a2.19 2.19 0 0 0-.149.808c0 .287.05.502.15.644s.256.154.47.034.37-.306.47-.56a2.2 2.2 0 0 0 .149-.811zm1.313-.734c0-.22.033-.446.098-.68s.168-.454.306-.657a1.53 1.53 0 0 1 .525-.482c.21-.117.383-.15.523-.103a.51.51 0 0 1 .308.314 1.51 1.51 0 0 1 .098.571c0 .22-.033.446-.098.68a2.24 2.24 0 0 1-.308.66 1.53 1.53 0 0 1-.523.483c-.21.117-.383.15-.523.1s-.242-.155-.308-.316a1.51 1.51 0 0 1-.098-.571zm1.548-.865c0-.285-.05-.498-.15-.64s-.256-.154-.47-.034-.37.306-.47.56a2.19 2.19 0 0 0-.149.808c0 .287.05.502.15.644s.256.154.47.034.37-.306.47-.56a2.2 2.2 0 0 0 .149-.811zm1.775-1.84l-.4.645-.182-.09.608-1 .266-.15v2.522l-.302.17v-2.106z" style="mix-blend-mode:overlay"></path><path d="M73.36 200.61c0-.22.033-.446.098-.68s.168-.454.306-.657a1.53 1.53 0 0 1 .525-.482c.21-.117.383-.15.523-.103a.51.51 0 0 1 .308.314 1.51 1.51 0 0 1 .098.571c0 .22-.033.446-.098.68a2.24 2.24 0 0 1-.308.66 1.53 1.53 0 0 1-.523.483c-.21.117-.383.15-.523.1s-.242-.155-.308-.316a1.51 1.51 0 0 1-.098-.571zm1.548-.865c0-.285-.05-.498-.15-.64s-.256-.154-.47-.034-.37.306-.47.56a2.19 2.19 0 0 0-.149.808c0 .287.05.502.15.644s.256.154.47.034.37-.306.47-.56a2.2 2.2 0 0 0 .149-.811zm1.775-1.84l-.4.645-.182-.09.608-1 .266-.15v2.522l-.302.17v-2.106zm1.404.063c0-.22.033-.446.098-.68s.168-.454.306-.657a1.53 1.53 0 0 1 .525-.482c.21-.117.383-.15.523-.103a.51.51 0 0 1 .308.314 1.51 1.51 0 0 1 .098.571c0 .22-.033.446-.098.68a2.24 2.24 0 0 1-.308.66 1.53 1.53 0 0 1-.523.483c-.21.117-.383.15-.523.1s-.242-.155-.308-.316a1.51 1.51 0 0 1-.098-.571zm1.548-.865c0-.285-.05-.498-.15-.64s-.256-.154-.47-.034-.37.306-.47.56a2.19 2.19 0 0 0-.149.808c0 .287.05.502.15.644s.256.154.47.034.37-.306.47-.56a2.2 2.2 0 0 0 .149-.811zm1.313-.734c0-.22.033-.446.098-.68s.168-.454.306-.657a1.53 1.53 0 0 1 .525-.482c.21-.117.383-.15.523-.103a.51.51 0 0 1 .308.314 1.51 1.51 0 0 1 .098.571c0 .22-.033.446-.098.68a2.24 2.24 0 0 1-.308.66 1.53 1.53 0 0 1-.523.483c-.21.117-.383.15-.523.1s-.242-.155-.308-.316a1.51 1.51 0 0 1-.098-.571zm1.548-.865c0-.285-.05-.498-.15-.64s-.256-.154-.47-.034-.37.306-.47.56a2.19 2.19 0 0 0-.149.808c0 .287.05.502.15.644s.256.154.47.034.37-.306.47-.56a2.2 2.2 0 0 0 .149-.811zm1.775-1.84l-.4.645-.182-.09.608-1 .266-.15v2.522l-.302.17v-2.106zm1.404.063c0-.22.033-.446.098-.68s.168-.454.306-.657a1.53 1.53 0 0 1 .525-.482c.21-.117.383-.15.523-.103a.51.51 0 0 1 .308.314 1.51 1.51 0 0 1 .098.571c0 .22-.033.446-.098.68a2.24 2.24 0 0 1-.308.66 1.53 1.53 0 0 1-.523.483c-.21.117-.383.15-.523.1s-.242-.155-.308-.316a1.51 1.51 0 0 1-.098-.571zm1.548-.865c0-.285-.05-.498-.15-.64s-.256-.154-.47-.034-.37.306-.47.56a2.19 2.19 0 0 0-.149.808c0 .287.05.502.15.644s.256.154.47.034.37-.306.47-.56a2.2 2.2 0 0 0 .149-.811zm1.775-1.84l-.4.645-.182-.09.608-1 .266-.15v2.522l-.302.17v-2.106zm1.404.063c0-.22.033-.446.098-.68s.168-.454.306-.657a1.53 1.53 0 0 1 .525-.482c.21-.117.383-.15.523-.103a.51.51 0 0 1 .308.314 1.51 1.51 0 0 1 .098.571c0 .22-.033.446-.098.68a2.24 2.24 0 0 1-.308.66 1.53 1.53 0 0 1-.523.483c-.21.117-.383.15-.523.1s-.242-.155-.308-.316a1.51 1.51 0 0 1-.098-.571zm1.548-.865c0-.285-.05-.498-.15-.64s-.256-.154-.47-.034-.37.306-.47.56a2.19 2.19 0 0 0-.149.808c0 .287.05.502.15.644s.256.154.47.034.37-.306.47-.56a2.2 2.2 0 0 0 .149-.811zm1.775-1.84l-.4.645-.182-.09.608-1 .266-.15v2.522l-.302.17v-2.106zm1.404.063c0-.22.033-.446.098-.68s.168-.454.306-.657a1.53 1.53 0 0 1 .525-.482c.21-.117.383-.15.523-.103a.51.51 0 0 1 .308.314 1.51 1.51 0 0 1 .098.571c0 .22-.033.446-.098.68a2.24 2.24 0 0 1-.308.66 1.53 1.53 0 0 1-.523.483c-.21.117-.383.15-.523.1s-.242-.155-.308-.316a1.51 1.51 0 0 1-.098-.571zm1.548-.865c0-.285-.05-.498-.15-.64s-.256-.154-.47-.034-.37.306-.47.56a2.19 2.19 0 0 0-.149.808c0 .287.05.502.15.644s.256.154.47.034.37-.306.47-.56a2.2 2.2 0 0 0 .149-.811zm1.775-1.84l-.4.645-.182-.09.608-1 .266-.15v2.522l-.302.17v-2.106zm1.404.063c0-.22.033-.446.098-.68s.168-.454.306-.657a1.53 1.53 0 0 1 .525-.482c.21-.117.383-.15.523-.103a.51.51 0 0 1 .308.314 1.51 1.51 0 0 1 .098.571c0 .22-.033.446-.098.68a2.24 2.24 0 0 1-.308.66 1.53 1.53 0 0 1-.523.483c-.21.117-.383.15-.523.1s-.242-.155-.308-.316a1.51 1.51 0 0 1-.098-.571zm1.548-.865c0-.285-.05-.498-.15-.64s-.256-.154-.47-.034-.37.306-.47.56a2.19 2.19 0 0 0-.149.808c0 .287.05.502.15.644s.256.154.47.034.37-.306.47-.56a2.2 2.2 0 0 0 .149-.811zm1.775-1.84l-.4.645-.182-.09.608-1 .266-.15v2.522l-.302.17v-2.106zm1.866-1.043l-.4.645-.182-.09.608-1 .266-.15V184l-.302.17v-2.106zm1.404.063c0-.22.033-.446.098-.68s.168-.454.306-.657a1.53 1.53 0 0 1 .525-.482c.21-.117.383-.15.523-.103a.51.51 0 0 1 .308.314 1.51 1.51 0 0 1 .098.571c0 .22-.033.446-.098.68a2.24 2.24 0 0 1-.308.66 1.53 1.53 0 0 1-.523.483c-.21.117-.383.15-.523.1s-.242-.155-.308-.316a1.51 1.51 0 0 1-.098-.571zm1.548-.865c0-.285-.05-.498-.15-.64s-.256-.154-.47-.034-.37.306-.47.56a2.19 2.19 0 0 0-.149.808c0 .287.05.502.15.644s.256.154.47.034.37-.306.47-.56a2.2 2.2 0 0 0 .149-.811zm1.775-1.84l-.4.645-.182-.09.608-1 .266-.15v2.522l-.302.17v-2.106zm1.404.063c0-.22.033-.446.098-.68s.168-.454.306-.657a1.53 1.53 0 0 1 .525-.482c.21-.117.383-.15.523-.103a.51.51 0 0 1 .308.314 1.51 1.51 0 0 1 .098.571c0 .22-.033.446-.098.68a2.24 2.24 0 0 1-.308.66 1.53 1.53 0 0 1-.523.483c-.21.117-.383.15-.523.1s-.242-.155-.308-.316a1.51 1.51 0 0 1-.098-.571zm1.548-.865c0-.285-.05-.498-.15-.64s-.256-.154-.47-.034-.37.306-.47.56a2.19 2.19 0 0 0-.149.808c0 .287.05.502.15.644s.256.154.47.034.37-.306.47-.56a2.2 2.2 0 0 0 .149-.811zm1.775-1.84l-.4.645-.182-.09.608-1 .266-.15v2.522l-.302.17v-2.106zm1.404.063c0-.22.033-.446.098-.68s.168-.454.306-.657a1.53 1.53 0 0 1 .525-.482c.21-.117.383-.15.523-.103a.51.51 0 0 1 .308.314 1.51 1.51 0 0 1 .098.571c0 .22-.033.446-.098.68a2.24 2.24 0 0 1-.308.66 1.53 1.53 0 0 1-.523.483c-.21.117-.383.15-.523.1s-.242-.155-.308-.316a1.51 1.51 0 0 1-.098-.571zm1.548-.865c0-.285-.05-.498-.15-.64s-.256-.154-.47-.034-.37.306-.47.56a2.19 2.19 0 0 0-.149.808c0 .287.05.502.15.644s.256.154.47.034.37-.306.47-.56a2.2 2.2 0 0 0 .149-.811zm1.313-.734c0-.22.033-.446.098-.68s.168-.454.306-.657a1.53 1.53 0 0 1 .525-.482c.21-.117.383-.15.523-.103a.51.51 0 0 1 .308.314 1.51 1.51 0 0 1 .098.571c0 .22-.033.446-.098.68a2.24 2.24 0 0 1-.308.66 1.53 1.53 0 0 1-.523.483c-.21.117-.383.15-.523.1s-.242-.155-.308-.316a1.51 1.51 0 0 1-.098-.571zm1.548-.865c0-.285-.05-.498-.15-.64s-.256-.154-.47-.034-.37.306-.47.56a2.19 2.19 0 0 0-.149.808c0 .287.05.502.15.644s.256.154.47.034.37-.306.47-.56a2.2 2.2 0 0 0 .149-.811zm1.775-1.84l-.4.645-.182-.09.608-1 .266-.15v2.522l-.302.17v-2.106zm1.404.063c0-.22.033-.446.098-.68s.168-.454.306-.657a1.53 1.53 0 0 1 .525-.482c.21-.117.383-.15.523-.103a.51.51 0 0 1 .308.314 1.51 1.51 0 0 1 .098.571c0 .22-.033.446-.098.68a2.24 2.24 0 0 1-.308.66 1.53 1.53 0 0 1-.523.483c-.21.117-.383.15-.523.1s-.242-.155-.308-.316a1.51 1.51 0 0 1-.098-.571zm1.548-.865c0-.285-.05-.498-.15-.64s-.256-.154-.47-.034-.37.306-.47.56a2.19 2.19 0 0 0-.149.808c0 .287.05.502.15.644s.256.154.47.034.37-.306.47-.56a2.2 2.2 0 0 0 .149-.811zm1.775-1.84l-.4.645-.182-.09.608-1 .266-.15v2.522l-.302.17v-2.106zm1.404.063c0-.22.033-.446.098-.68s.168-.454.306-.657a1.53 1.53 0 0 1 .525-.482c.21-.117.383-.15.523-.103a.51.51 0 0 1 .308.314 1.51 1.51 0 0 1 .098.571c0 .22-.033.446-.098.68a2.24 2.24 0 0 1-.308.66 1.53 1.53 0 0 1-.523.483c-.21.117-.383.15-.523.1s-.242-.155-.308-.316a1.51 1.51 0 0 1-.098-.571zm1.548-.865c0-.285-.05-.498-.15-.64s-.256-.154-.47-.034-.37.306-.47.56a2.19 2.19 0 0 0-.149.808c0 .287.05.502.15.644s.256.154.47.034.37-.306.47-.56a2.2 2.2 0 0 0 .149-.811zm1.313-.734c0-.22.033-.446.098-.68s.168-.454.306-.657a1.53 1.53 0 0 1 .525-.482c.21-.117.383-.15.523-.103a.51.51 0 0 1 .308.314 1.51 1.51 0 0 1 .098.571c0 .22-.033.446-.098.68a2.24 2.24 0 0 1-.308.66 1.53 1.53 0 0 1-.523.483c-.21.117-.383.15-.523.1s-.242-.155-.308-.316a1.51 1.51 0 0 1-.098-.571zm1.548-.865c0-.285-.05-.498-.15-.64s-.256-.154-.47-.034-.37.306-.47.56a2.19 2.19 0 0 0-.149.808c0 .287.05.502.15.644s.256.154.47.034.37-.306.47-.56a2.2 2.2 0 0 0 .149-.811zm1.313-.734c0-.22.033-.446.098-.68s.168-.454.306-.657a1.53 1.53 0 0 1 .525-.482c.21-.117.383-.15.523-.103a.51.51 0 0 1 .308.314 1.51 1.51 0 0 1 .098.571c0 .22-.033.446-.098.68a2.24 2.24 0 0 1-.308.66 1.53 1.53 0 0 1-.523.483c-.21.117-.383.15-.523.1s-.242-.155-.308-.316a1.51 1.51 0 0 1-.098-.571zm1.548-.865c0-.285-.05-.498-.15-.64s-.256-.154-.47-.034-.37.306-.47.56a2.19 2.19 0 0 0-.149.808c0 .287.05.502.15.644s.256.154.47.034.37-.306.47-.56a2.2 2.2 0 0 0 .149-.811zm1.775-1.84l-.4.645-.182-.09.608-1 .266-.15v2.522l-.302.17v-2.106z" style="mix-blend-mode:overlay"></path><path d="M73.36 207.775c0-.22.033-.446.098-.68s.168-.454.306-.657a1.53 1.53 0 0 1 .525-.482c.21-.117.383-.15.523-.103a.51.51 0 0 1 .308.314 1.51 1.51 0 0 1 .098.571c0 .22-.033.446-.098.68a2.24 2.24 0 0 1-.308.66 1.53 1.53 0 0 1-.523.483c-.21.117-.383.15-.523.1s-.242-.155-.308-.316a1.51 1.51 0 0 1-.098-.571zm1.548-.865c0-.285-.05-.498-.15-.64s-.256-.154-.47-.034-.37.306-.47.56a2.19 2.19 0 0 0-.149.808c0 .287.05.502.15.644s.256.154.47.034.37-.306.47-.56a2.2 2.2 0 0 0 .149-.811zm1.775-1.84l-.4.645-.182-.09.608-1 .266-.15v2.522l-.302.17v-2.106zm1.404.063c0-.22.033-.446.098-.68s.168-.454.306-.657a1.53 1.53 0 0 1 .525-.482c.21-.117.383-.15.523-.103a.51.51 0 0 1 .308.314 1.51 1.51 0 0 1 .098.571c0 .22-.033.446-.098.68a2.24 2.24 0 0 1-.308.66 1.53 1.53 0 0 1-.523.483c-.21.117-.383.15-.523.1s-.242-.155-.308-.316a1.51 1.51 0 0 1-.098-.571zm1.548-.865c0-.285-.05-.498-.15-.64s-.256-.154-.47-.034-.37.306-.47.56a2.19 2.19 0 0 0-.149.808c0 .287.05.502.15.644s.256.154.47.034.37-.306.47-.56a2.2 2.2 0 0 0 .149-.811zm1.313-.734c0-.22.033-.446.098-.68s.168-.454.306-.657a1.53 1.53 0 0 1 .525-.482c.21-.117.383-.15.523-.103a.51.51 0 0 1 .308.314 1.51 1.51 0 0 1 .098.571c0 .22-.033.446-.098.68a2.24 2.24 0 0 1-.308.66 1.53 1.53 0 0 1-.523.483c-.21.117-.383.15-.523.1s-.242-.155-.308-.316a1.51 1.51 0 0 1-.098-.571zm1.548-.865c0-.285-.05-.498-.15-.64s-.256-.154-.47-.034-.37.306-.47.56a2.19 2.19 0 0 0-.149.808c0 .287.05.502.15.644s.256.154.47.034.37-.306.47-.56a2.2 2.2 0 0 0 .149-.811zm1.775-1.84l-.4.645-.182-.09.608-1 .266-.15v2.522l-.302.17v-2.106zm1.404.063c0-.22.033-.446.098-.68s.168-.454.306-.657a1.53 1.53 0 0 1 .525-.482c.21-.117.383-.15.523-.103a.51.51 0 0 1 .308.314 1.51 1.51 0 0 1 .098.571c0 .22-.033.446-.098.68a2.24 2.24 0 0 1-.308.66 1.53 1.53 0 0 1-.523.483c-.21.117-.383.15-.523.1s-.242-.155-.308-.316a1.51 1.51 0 0 1-.098-.571zm1.548-.865c0-.285-.05-.498-.15-.64s-.256-.154-.47-.034-.37.306-.47.56a2.19 2.19 0 0 0-.149.808c0 .287.05.502.15.644s.256.154.47.034.37-.306.47-.56a2.2 2.2 0 0 0 .149-.811zm1.775-1.84l-.4.645-.182-.09.608-1 .266-.15v2.522l-.302.17v-2.106zm1.404.063c0-.22.033-.446.098-.68s.168-.454.306-.657a1.53 1.53 0 0 1 .525-.482c.21-.117.383-.15.523-.103a.51.51 0 0 1 .308.314 1.51 1.51 0 0 1 .098.571c0 .22-.033.446-.098.68a2.24 2.24 0 0 1-.308.66 1.53 1.53 0 0 1-.523.483c-.21.117-.383.15-.523.1s-.242-.155-.308-.316a1.51 1.51 0 0 1-.098-.571zm1.548-.865c0-.285-.05-.498-.15-.64s-.256-.154-.47-.034-.37.306-.47.56a2.19 2.19 0 0 0-.149.808c0 .287.05.502.15.644s.256.154.47.034.37-.306.47-.56a2.2 2.2 0 0 0 .149-.811zm1.775-1.84l-.4.645-.182-.09.608-1 .266-.15v2.522l-.302.17v-2.106zm1.404.063c0-.22.033-.446.098-.68s.168-.454.306-.657a1.53 1.53 0 0 1 .525-.482c.21-.117.383-.15.523-.103a.51.51 0 0 1 .308.314 1.51 1.51 0 0 1 .098.571c0 .22-.033.446-.098.68a2.24 2.24 0 0 1-.308.66 1.53 1.53 0 0 1-.523.483c-.21.117-.383.15-.523.1s-.242-.155-.308-.316a1.51 1.51 0 0 1-.098-.571zm1.548-.865c0-.285-.05-.498-.15-.64s-.256-.154-.47-.034-.37.306-.47.56a2.19 2.19 0 0 0-.149.808c0 .287.05.502.15.644s.256.154.47.034.37-.306.47-.56a2.2 2.2 0 0 0 .149-.811zm1.775-1.84l-.4.645-.182-.09.608-1 .266-.15v2.522l-.302.17v-2.106zm1.404.063c0-.22.033-.446.098-.68s.168-.454.306-.657a1.53 1.53 0 0 1 .525-.482c.21-.117.383-.15.523-.103a.51.51 0 0 1 .308.314 1.51 1.51 0 0 1 .098.571c0 .22-.033.446-.098.68a2.24 2.24 0 0 1-.308.66 1.53 1.53 0 0 1-.523.483c-.21.117-.383.15-.523.1s-.242-.155-.308-.316a1.51 1.51 0 0 1-.098-.571zm1.548-.865c0-.285-.05-.498-.15-.64s-.256-.154-.47-.034-.37.306-.47.56a2.19 2.19 0 0 0-.149.808c0 .287.05.502.15.644s.256.154.47.034.37-.306.47-.56a2.2 2.2 0 0 0 .149-.811zm1.775-1.84l-.4.645-.182-.09.608-1 .266-.15v2.522l-.302.17v-2.106zm1.866-1.043l-.4.645-.182-.09.608-1 .266-.15v2.522l-.302.17v-2.106zm1.404.063c0-.22.033-.446.098-.68s.168-.454.306-.657a1.53 1.53 0 0 1 .525-.482c.21-.117.383-.15.523-.103a.51.51 0 0 1 .308.314 1.51 1.51 0 0 1 .098.571c0 .22-.033.446-.098.68a2.24 2.24 0 0 1-.308.66 1.53 1.53 0 0 1-.523.483c-.21.117-.383.15-.523.1s-.242-.155-.308-.316a1.51 1.51 0 0 1-.098-.571zm1.548-.865c0-.285-.05-.498-.15-.64s-.256-.154-.47-.034-.37.306-.47.56a2.19 2.19 0 0 0-.149.808c0 .287.05.502.15.644s.256.154.47.034.37-.306.47-.56a2.2 2.2 0 0 0 .149-.811zm1.775-1.84l-.4.645-.182-.09.608-1 .266-.15v2.522l-.302.17v-2.106zm1.404.063c0-.22.033-.446.098-.68s.168-.454.306-.657a1.53 1.53 0 0 1 .525-.482c.21-.117.383-.15.523-.103a.51.51 0 0 1 .308.314 1.51 1.51 0 0 1 .098.571c0 .22-.033.446-.098.68a2.24 2.24 0 0 1-.308.66 1.53 1.53 0 0 1-.523.483c-.21.117-.383.15-.523.1s-.242-.155-.308-.316a1.51 1.51 0 0 1-.098-.571zm1.548-.865c0-.285-.05-.498-.15-.64s-.256-.154-.47-.034-.37.306-.47.56a2.19 2.19 0 0 0-.149.808c0 .287.05.502.15.644s.256.154.47.034.37-.306.47-.56a2.2 2.2 0 0 0 .149-.811zm1.775-1.84l-.4.645-.182-.09.608-1 .266-.15v2.522l-.302.17v-2.106zm1.404.063c0-.22.033-.446.098-.68s.168-.454.306-.657a1.53 1.53 0 0 1 .525-.482c.21-.117.383-.15.523-.103a.51.51 0 0 1 .308.314 1.51 1.51 0 0 1 .098.571c0 .22-.033.446-.098.68a2.24 2.24 0 0 1-.308.66 1.53 1.53 0 0 1-.523.483c-.21.117-.383.15-.523.1s-.242-.155-.308-.316a1.51 1.51 0 0 1-.098-.571zm1.548-.865c0-.285-.05-.498-.15-.64s-.256-.154-.47-.034-.37.306-.47.56a2.19 2.19 0 0 0-.149.808c0 .287.05.502.15.644s.256.154.47.034.37-.306.47-.56a2.2 2.2 0 0 0 .149-.811zm1.313-.734c0-.22.033-.446.098-.68s.168-.454.306-.657a1.53 1.53 0 0 1 .525-.482c.21-.117.383-.15.523-.103a.51.51 0 0 1 .308.314 1.51 1.51 0 0 1 .098.571c0 .22-.033.446-.098.68a2.24 2.24 0 0 1-.308.66 1.53 1.53 0 0 1-.523.483c-.21.117-.383.15-.523.1s-.242-.155-.308-.316a1.51 1.51 0 0 1-.098-.571zm1.548-.865c0-.285-.05-.498-.15-.64s-.256-.154-.47-.034-.37.306-.47.56a2.19 2.19 0 0 0-.149.808c0 .287.05.502.15.644s.256.154.47.034.37-.306.47-.56a2.2 2.2 0 0 0 .149-.811zm1.775-1.84l-.4.645-.182-.09.608-1 .266-.15v2.522l-.302.17v-2.106zm1.404.063c0-.22.033-.446.098-.68s.168-.454.306-.657a1.53 1.53 0 0 1 .525-.482c.21-.117.383-.15.523-.103a.51.51 0 0 1 .308.314 1.51 1.51 0 0 1 .098.571c0 .22-.033.446-.098.68a2.24 2.24 0 0 1-.308.66 1.53 1.53 0 0 1-.523.483c-.21.117-.383.15-.523.1s-.242-.155-.308-.316a1.51 1.51 0 0 1-.098-.571zm1.548-.865c0-.285-.05-.498-.15-.64s-.256-.154-.47-.034-.37.306-.47.56a2.19 2.19 0 0 0-.149.808c0 .287.05.502.15.644s.256.154.47.034.37-.306.47-.56a2.2 2.2 0 0 0 .149-.811zm1.775-1.84l-.4.645-.182-.09.608-1 .266-.15v2.522l-.302.17v-2.106zm1.404.063c0-.22.033-.446.098-.68s.168-.454.306-.657a1.53 1.53 0 0 1 .525-.482c.21-.117.383-.15.523-.103a.51.51 0 0 1 .308.314 1.51 1.51 0 0 1 .098.571c0 .22-.033.446-.098.68a2.24 2.24 0 0 1-.308.66 1.53 1.53 0 0 1-.523.483c-.21.117-.383.15-.523.1s-.242-.155-.308-.316a1.51 1.51 0 0 1-.098-.571zm1.548-.865c0-.285-.05-.498-.15-.64s-.256-.154-.47-.034-.37.306-.47.56a2.19 2.19 0 0 0-.149.808c0 .287.05.502.15.644s.256.154.47.034.37-.306.47-.56a2.2 2.2 0 0 0 .149-.811zm1.313-.734c0-.22.033-.446.098-.68s.168-.454.306-.657a1.53 1.53 0 0 1 .525-.482c.21-.117.383-.15.523-.103a.51.51 0 0 1 .308.314 1.51 1.51 0 0 1 .098.571c0 .22-.033.446-.098.68a2.24 2.24 0 0 1-.308.66 1.53 1.53 0 0 1-.523.483c-.21.117-.383.15-.523.1s-.242-.155-.308-.316a1.51 1.51 0 0 1-.098-.571zm1.548-.865c0-.285-.05-.498-.15-.64s-.256-.154-.47-.034-.37.306-.47.56a2.19 2.19 0 0 0-.149.808c0 .287.05.502.15.644s.256.154.47.034.37-.306.47-.56a2.2 2.2 0 0 0 .149-.811zm1.313-.734c0-.22.033-.446.098-.68s.168-.454.306-.657a1.53 1.53 0 0 1 .525-.482c.21-.117.383-.15.523-.103a.51.51 0 0 1 .308.314 1.51 1.51 0 0 1 .098.571c0 .22-.033.446-.098.68a2.24 2.24 0 0 1-.308.66 1.53 1.53 0 0 1-.523.483c-.21.117-.383.15-.523.1s-.242-.155-.308-.316a1.51 1.51 0 0 1-.098-.571zm1.548-.865c0-.285-.05-.498-.15-.64s-.256-.154-.47-.034-.37.306-.47.56a2.19 2.19 0 0 0-.149.808c0 .287.05.502.15.644s.256.154.47.034.37-.306.47-.56a2.2 2.2 0 0 0 .149-.811zm1.775-1.84l-.4.645-.182-.09.608-1 .266-.15v2.522l-.302.17v-2.106z" style="mix-blend-mode:overlay"></path><use xlink:href="#f" style="mix-blend-mode:overlay"></use><use xlink:href="#f" y="6.271" style="mix-blend-mode:overlay"></use><use xlink:href="#f" y="12.543" style="mix-blend-mode:overlay"></use></g><path opacity=".24" d="M355.93 293.873l9.862-6.272 7.62 6.272 5.38-4.032 52.448 33.15-18.38 11.647z" class="B J"></path><path d="M355.424 238s.2 2.703-.334 3.604c-.238.45.357 1.33.38 1.74a5.39 5.39 0 0 0 .524 1.802c.643 1.25.7 1.372 1.55 1.372.88 0 1.024-.287 1.215-1.33.2-1.024.334-1.495.048-2.253-.286-.737-.048-1.106.238-1.495.286-.37.143-3.645.286-4.3.143-.676-3.717-.594-3.907-.594s0 1.25 0 1.454m17.15-28.7c.667-.88 1.668-3.36-.834-3.174s-3.955.06-4.67 1.495c-.74 1.434-1.668 3.543-2.05 3.8-.238.177 2 .94 6.718 2.284.1-2.342.4-3.807.834-4.394z" class="F"></path><path d="M372.314 210.088s-2.406-.614-2.55-.9c0 0-.93.164-2.025-.184l-1.215-.348-.214.512c.476.307 2.716 1.003 3.645 1.024s2.335.246 2.36-.102" fill="#ab8a72"></path><g fill="#1a1a30"><use xlink:href="#g"></use><use xlink:href="#g" x="13.447" y="2.688"></use></g><path d="M369.38 288.497c-.453 1.065 0 2.24-.448 3.584.572.758 3.138 2.24 4.93 0 .257-.288-.585-.625-.448-1.792.154-1.322.588-2.756.487-3.398-.167-1.208-3.812-3.522-6.123 0 0 0 2.15.254 1.602 1.606z" fill="#f5b689"></path><path d="M358.317 212.49c-2.24 2.437-3.026 5.98-3.12 8.97-.095 3-.334 7.577.048 11.94.3 3.993-.143 5.857-.19 6.615-.07.758 2.406 1.393 3.05 1.515s2.335.594 2.86-.205c.5-.82.453-7.946.238-10.936s.048-8.97.762-11.407c.74-2.417 5.718-5.632 4.312-7.66-.762-1.106-5.742-1.27-7.957 1.167z" fill="#2a3f5b"></path><path d="M356.55 254.23c-.223 4.505.122 12.656-.446 16.117-.392 2.294-.748 8.94-1.07 19.94 4.602 1.068 7.092 1.248 7.47.538l1.073-17.366c.243-1.577 2.734-16.752 1.478-19.21 0 0 .972 1.802 1.094 2.478.304 1.72.648 2.52.75 3.625.162 2.007 1.094 13.332.628 15.707-.486 2.376.08 18.636 1.6 19.086 1.5.45 3.16.307 4.496-.532.506-.348.952-.758 1.134-1.27.587-1.66.972-20.827.972-22.834 0-2.027 1.316-21.114.182-27.012 0 0-3.746-7.99-17.497-2.665-.71 1.474-1.66 9.36-1.863 13.396z" class="L"></path><path d="M356.664 239.146s10.532 4.014 14.795 3.318c0 0 2.886-.04 3.097-.532l.4 1.7v1.044s-4.702 2.703-10.857.676c-4.51-1.515-5.792-2.498-6.824-3.36-.822-.696-.726-.983-.707-1.352s-.076-.778.096-1.495" fill="#1f253f"></path><path d="M370.29 209.398s2.597 1.27 4.098.676c1.263-.512.953-1.024 1.096-1.618s.596-2.58.524-4.157c-.024-.922.07-1.884-.19-3.092-.286-1.188-1.787-1.782-2.335-1.843-.572-.04-5.122-1.024-6.433 2.498s-1.596 4.014-1.12 4.976c.5.983 4.36 2.56 4.36 2.56" class="F"></path><path d="M368.707 209.568s1.858.614.762-.88c-.858-1.208-.095-2.253-.334-2.58-.43-.573-1.382-1.556.12-2.52.74-.47.214 1.536 1.096 1.843.905.328 1.334-.123 1.334-.983s-.74-1.823.334-2.642c1.072-.8 1.24-.717 2.287-.84 1.072-.143 1.572-.307 1.715-1.106.12-.82.262-2.232-1.93-2.396-2.216-.164-6.41.164-6.504.922-.07.758.286 1.024-.62.82-.905-.225-2.454.553-2.644 1.106-.167.594-.262.512-.476 2.13-.167 1.638-.095 1.925.167 3.113s.953 2.376 1.3 2.62c.334.246 2.764 1.33 3.383 1.393" fill="#000"></path><path d="M358.62 210.997c-1.793 1.61-2.138 4.163-1.947 6.334s1.5 11.585 1.5 13.377-2.404 7.9-1.618 8.822c.78.896 9.376 6.485 17.458 5.748.05-.005 1.594-.23 1.643-.235l-.323-4.73a.37.37 0 0 1-.044-.109c-.53-3.224-1.596-5.125-1.776-7.797-.18-2.68 2.03-8.607 2.142-9.762 0 0-4.397-2.8 1.273-5.493.334-.164 1.93.512.07-.778s-2.673-2.564-5.103-2.953c-3.717-.573-6.17-2.437-6.504-3.502 0 0-4.98-.53-6.773 1.08z" class="K"></path><path d="M384.62 213.013l2.203-2.822c.226-.452 0-1.838.546-2.58.32-.403.358-.677.47-.855.075-.13.264-.355.414-.194.358.37.17.5.245 1.048.02.13-.02.113-.056.403-.056.5.32.226.584 0 .188-.13.433-.8.98-1.274.904-.822.17-1.274.866-2.226.602-.822 1.356.726 1.356 1.193s-.094 2.564-.32 2.984c-.207.435-.697 1.822-1.3 2.097-1.073.516-1.79 2.774-2.015 3.177-.207.387-2.805 1.13-3.973-.952" class="F"></path><path d="M377.16 216.565l3.577 2.724 5.196-7.77c.056-.112.226-.064.358-.048.565.032.79.128 1.694.272 1.224.192 1.902.288 2.335.64.094.08.32.224.264.336l-7.23 13.764c-.358.657-1.13 1.1-1.977 1.1-.584 0-1.13-.208-1.525-.56l-6.834-5.448c-2.71-2.083.923-6.297 4.142-5" class="K"></path><g class="B"><path d="M135.963 256.04c-1.425-1.443-2.286-2.203-2.585-2.278s-.3.467 0 1.627c-2.8 0-4.31.542-4.524 1.627s.646 1.627 2.585 1.627h4.524v-2.604z" class="F"></path><path d="M183.147 273.94c-.43 4.773-4.094 8.245-10.988 10.415-10.342 3.255-22.945-5.234-22.945-3.905 0 .886-.13 5.66-.386 14.32-7.93-15.188-11.356-24.084-10.28-26.687 1.616-3.905 4.524-3.905 7.756-3.255 2.155.434 4.31 1.085 6.464 1.953l-1.616-1.302c-2.554-1.56-2.554-2.86 0-3.905s6.217-.828 10.988.65l21.006 6.51v5.207z" fill="#6891c8"></path><path fill="#d8732f" d="M166.02 246.277l-10.665-2.604v-2.278h14.866"></path><path d="M165.695 237.164c-2.37 1.953-3.878 4.556-4.524 7.81s-.43 7.377.646 12.367c.592 2.747.592 5.676 0 8.787-.887 4.667-2.91 3.58-2.91 6.51s4.848 8.462 13.25 8.136c5.602-.217 9.264-2.278 10.988-6.184.06-14.083-.48-23.412-1.616-27.99-1.704-6.865-2.647-9.674-6.787-11.716-2.76-1.36-5.776-.602-9.05 2.278z" fill="#f7893f"></path><path d="M155.74 241.737c-1.26-1.206-2.553-1.75-3.878-1.627s-2.402.88-3.232 2.278c-.517.673-.517 1.107 0 1.302s1.27-.13 2.262-.976c.802-.545 1.34-.762 1.616-.65s.276.545 0 1.302c-1.287.657-1.825 1.09-1.616 1.302.314.316 1.715.395 3.555-.325 1.227-.48 1.98-1.13 2.262-1.953l-.97-.65z" class="F"></path><path d="M161.17 243.673c2.232-1.846 3.74-1.63 4.524.65s.245 4.884-1.616 7.81c-6.248 4.773-10.126 7.485-11.634 8.136s-7.218.434-17.128-.65l.323-3.905c8.187 0 12.712-.217 13.573-.65s4.848-4.23 11.957-11.39z" fill="url(#N)"></path><g class="F"><path d="M165.695 238.98c.862-.742 2.37-1.673 4.524-2.792 1.293-.434 2.262-.434 2.91 0s.54.976-.323 1.627l-4.848 3.255c-1.35.596-2.32.813-2.91.65-.883-.242-.646-1.627.646-2.74z"></path><path d="M171.513 237.815l-.323-12.042-10.665-1.627v6.51c-.215 2.17.323 3.58 1.616 4.23s2.585.434 3.878-.65v5.533l5.494-1.953z"></path></g><path d="M157.94 221.868c.494-.995 2.262-.325 2.91-.65s.97-2.604 3.232-2.604 1.616 1.953 2.585 2.604 2.91-1.953 4.848.976c.675 1.02.295 2.677.323 4.882v7.485c-3.283-.372-5.222-.697-5.817-.976s-1.134-.82-1.616-1.627c.515.312.838.204.97-.325.323-1.302-.378-1.974-.97-1.953-1.063.038-1.08.866-2.262.325s-.227-1.237-1.293-2.604-1.46-.013-2.262-1.627-1.14-2.91-.646-3.905z" fill="#0f2767"></path><path d="M150.173 280.434c-1.494-.597-2.39-.448-2.7.448s.15 4.778 1.345 11.647l.448-11.647.897-.448z" fill="#466794"></path><path d="M173.93 389.74l40.345-28.67 68.138 38.078-45.276 26.88z" class="J N"></path></g><path d="M261.015 361.965l.072 41.875-32.376 18.732-.1-41.89z" class="Q"></path><path d="M250.138 349.422l40.345-28.67 68.138 38.078-45.276 26.88z" class="B J N"></path><path d="M338.118 321.647l.072 41.875-32.376 18.732-.1-41.89z" class="Q"></path><path d="M173.93 349.422l54.568 31.365.122 41.656-54.613-31.197z" class="G"></path><path d="M271.098 308.876l-.68 2.424c-7.476-1.817-11.316-6.637-11.316-14.157 0-3.632.68-6.02 3.37-13.436 3.557-9.81 4.32-15.068 1.86-21.645-3.332-8.906-15.335-19.39-27.368-27.046l1.517-2.07c12.473 7.935 24.85 18.823 28.39 28.3 2.714 7.253 1.884 12.97-1.852 23.272-2.582 7.123-3.23 9.387-3.23 12.634 0 6.4 3.034 10.21 9.305 11.732z" class="B O"></path><path d="M251.034 309.104l54.568 31.365.122 41.656-54.613-31.197z" class="G"></path><g fill="#e7e9f5"><use xlink:href="#h"></use><use xlink:href="#h" x="77.105" y="-40.317"></use></g><path d="M217.185 365.55L192.76 351.5v-.743l14.62-7.616 23.93 12.99a1.31 1.31 0 0 1-.579 1.576l-13.546 7.832z" class="M"></path><use xlink:href="#i" fill="#96baea"></use><use xlink:href="#j" class="M"></use><use xlink:href="#k" class="G"></use><path fill="#97b2cc" d="M193.026 350.65l23.94 14.004-1.91-13.188-24.986-14.587z"></path><path d="M294.288 325.232l-24.426-14.04v-.743l14.62-7.616 23.93 12.99a1.31 1.31 0 0 1-.579 1.576l-13.546 7.832z" class="M"></path><use xlink:href="#i" x="77.103" y="-40.318" fill="#96baea"></use><use xlink:href="#j" x="77.104" y="-40.318" class="M"></use><use xlink:href="#k" x="77.103" y="-40.32" class="G"></use><path fill="#97b2cc" d="M270.13 310.33l23.94 14.004-1.91-13.188-24.986-14.587z"></path><g class="B"><g fill="#091d3c"><path d="M209.596 341.716l13.93-24.728c1.426-2.27 2.377-2.808 2.854-1.613s.24 3.525-.71 6.988l-2.143 7.526-8.572 16.127-5.357-4.3z"></path><path d="M223 320.75c.18-2.135 1.073-4.106 2.68-5.913l9.108.538 11.786 9.676 1.07 11.29-2.68 11.29v5.376l-20.358-11.29-.536-7.795c-.894-6.645-1.25-11.035-1.07-13.17z"></path><path d="M237.455 341.716l4.286-11.827c1.802-3.55 3.23-5.164 4.286-4.838 1.583.49 2.68 2.688 2.68 6.988 0 2.867-2.143 8.064-6.43 15.6l-16.072 7.526 1.07-3.225-.536-2.688-2.143-1.075 12.858-6.45z"></path></g><path d="M224.597 348.167c-.568.214-.925 1.1-1.07 2.688l.536 3.225c.62 1.072 1.334 1.43 2.143 1.075 1.213-.533 1.803-1.436 2.143-2.688s.34-2.15-.536-3.225-2.362-1.396-3.214-1.075z" class="R"></path><path d="M224.597 349.242c-1.466-1.016-3.073-1.196-4.822-.538-2.623.987-3.75 2.15-3.75 3.763s.913 1.613 2.143 1.613 1.765-1.613 3.214-1.613 2.07 1.404 3.214 1.613c.763.14 1.656-.04 2.68-.538.357-.358.536-1.075.536-2.15 0-1.434-.357-2.33-1.07-2.688l-2.143.538z" class="F"></path><path d="M228.883 310.806l.42-6.12a2.15 2.15 0 0 1 1.821-1.979c1.843-.282 3.425-.36 4.747-.233 2.57.246 4.94 1.722 6.405 3.225s.536 3.225 0 5.376-1.624 2.87-2.68 4.3l-2.143 2.688c-1.064-1.402-1.67-2.657-1.816-3.763s.1-2.54.745-4.3l-3.75-.538-2.143-.538-1.607 1.882z" class="R"></path><g class="F"><path d="M214.418 344.942l-1.607 2.15-3.214.538c-1.786 0-3.036-.448-3.75-1.344s.18-1.882 2.68-2.957l3.214-1.613 2.68 3.225zm15.412-36.95c-.632 1.312-.948 2.52-.948 3.62 0 2.15.193 4.173.536 5.376.228.802.943 1.34 2.143 1.613 1.916.472 3.344.472 4.286 0s1.656-1.548 2.143-3.225c.714 0 1.25-.358 1.607-1.075.536-1.075 0-2.688-.536-1.613-.357.717-.714 1.254-1.07 1.613h-1.07v-2.688c0-1.075-.536-1.97-1.607-2.688-.657-.44-1.62-.098-2.68-.538-.28-.116-.667-.372-1.16-.767-.464-.372-1.14-.297-1.512.166-.05.064-.095.133-.13.206z"></path><path d="M231.026 319.945c-.69 1.86-.295 2.875 1.18 3.046 2.214.256 4.407-1.127 5.38-2.24.648-.742.605-1.996-.13-3.763l.536-1.613h-5.893l-1.07 4.57z"></path></g><path d="M301.7 285.81c.18-2.135 2.866-3.33 8.058-3.584.816-.416 1.712-.266 2.7.448 1.827 1.335 3.586.887 4.93 2.688 1.67 2.236.897 8.064-1.345 12.095-.6 1.08-3.02 5.088.897 12.095.033.06-5.044-2.658-15.23-8.153 1.188-1.687 1.782-3.3 1.782-4.838 0-2.308-2.052-7.55-1.782-10.75z" class="D"></path><path d="M301.618 309.105c-1.26-.177-2.283.253-3.066 1.29-1.175 1.557-1.394 2.72-.773 3.797s1.163.764 1.892.343.425-1.68 1.284-2.177c.573-.33 1.415-.338 2.528-.023l1.792-2.896c-.2.718-.508.718-.923 0-.553-.957-.992-1.37-1.318-1.234l-1.417.898z" class="F"></path><path fill="#e37932" d="M302.586 308.208l2.24 2.688 8.517-6.72 4.93-13.44-2.24-4.032-5.603 14.335z"></path><path d="M305.276 266.546c1.345-1.344 4.034-2.688 5.386-.896 2.683-2.24 6.276 1.054 7.172 4.638.533 2.132.012 3.67.442 5.824.577 2.89 1.667 2.623 1.793 4.322.072.975-.4 3.142-.9 5.534-.136.662 1.09 3.265.9 3.874-.85 2.6-2.363 1.883-4.034 2.688-1.818.876-3.792 3.57-4.483 2.688-.313-.4-.913-3.05-.448-5.376.296-1.477 1.624-2.41 1.793-3.874.22-1.886-.307-3.766-.448-4.2-.897-2.688 1.674-3.153 1.35-5.218s-2.6-4.22-3.138-3.584c-.557.648-1.304.498-2.24-.448-.19.895-.5 1.887-.903 2.978-1.1 2.902-3.237-1.58-3.586-2.978-.897-3.584 0-4.638 1.345-5.982z" class="R"></path><path d="M290.482 302.832c0 2.09-.3 3.136-.897 3.136-.897 0-.224-1.25-.897-1.344s-.97.908-2.24.896-1.49 0-2.236-.937c-.498-.624.124-1.31 1.867-2.06l3.06-1.482 1.345 1.792z" class="F"></path><path d="M308.862 279.09v3.584c.897.3 1.793.448 2.7.448s1.345-.672 1.345-2.016l-.448-3.808-3.586 1.792z" fill="#c09272"></path><path d="M307.694 271.04c-1.015.112-1.522.883-1.522 2.313 0 2.327.007 2.114.35 3.317s1.892 3.763 3.214 3.763 2.755-1.613 4.056-2.688.323-2.47 0-3.136.36-1.245-.448-2.24-.634 0-2.24-1.075c-.438-.293-.894-.83-1.367-1.613l-1.5 1.146c-.155.117-.34.19-.532.212z" class="F"></path><path d="M191.09 375.72l-1.73 2.06c-17.198-14.425-21.593-29.013-12.836-43.4 4.137-6.792 11.678-12.25 26.544-20.494l3.837-2.11 3.868-2.118c11.654-6.4 18.084-10.384 23.685-15.105 7.08-5.968 11.05-12.032 11.8-18.757 1.37-12.134-1.912-19.82-9.57-27.72-.224-.23-5.844-5.71-7.15-7.242-2.302-2.7-3.46-5.134-3.46-7.892h2.7c0 2.014.893 3.89 2.818 6.148 1.21 1.42 6.733 6.805 7.034 7.115 8.176 8.436 11.782 16.877 10.31 29.893-.848 7.508-5.2 14.138-12.75 20.5-5.778 4.87-12.318 8.924-24.124 15.406l-1.94 1.063-1.932 1.057-3.824 2.104c-14.447 8-21.747 13.295-25.55 19.54-7.978 13.098-4.005 26.285 12.268 39.934z" class="O"></path></g><g transform="translate(210.69 201.59)"><path d="M0 12.543l10.76 4.928v25.983L0 38.526z" class="B G"></path><g transform="translate(10.759 4.48)"><path fill="#97baea" d="M0 12.736L21.517 0v25.983L0 38.27z" class="B"></path><mask class="C"><use xlink:href="#O"></use></mask><use fill="#0177c7" xlink:href="#O" class="B"></use></g><path d="M0 12.095L22.39 0l9.885 4.48-21.293 12.99z" class="B C"></path></g><g transform="translate(225.034 221.301)"><mask id="m" class="C"><use xlink:href="#P"></use></mask><g class="B"><use xlink:href="#P" class="E"></use><ellipse mask="url(#m)" cx="0" cy="1.344" rx="1" ry="1.344" class="D"></ellipse></g></g><g transform="translate(225.034 226.676)"><mask id="n" class="C"><use xlink:href="#Q"></use></mask><g class="B"><use xlink:href="#Q" class="E"></use><ellipse mask="url(#n)" cx="0" cy="1.344" rx="1" ry="1.344" class="D"></ellipse></g></g><g transform="translate(225.034 232.052)"><mask id="o" class="C"><use xlink:href="#R"></use></mask><g class="B"><use xlink:href="#R" class="E"></use><ellipse mask="url(#o)" cx="0" cy="1.344" rx="1" ry="1.344" class="D"></ellipse></g></g><g transform="translate(228.621 219.509)"><mask id="p" class="C"><use xlink:href="#S"></use></mask><g class="B"><use xlink:href="#S" class="E"></use><ellipse mask="url(#p)" cx="0" cy="1.344" rx="1" ry="1.344" class="D"></ellipse></g></g><g transform="translate(228.621 224.884)"><mask id="q" class="C"><use xlink:href="#T"></use></mask><g class="B"><use xlink:href="#T" class="E"></use><ellipse mask="url(#q)" cx="0" cy="1.344" rx="1" ry="1.344" class="D"></ellipse></g></g><g transform="translate(228.621 230.26)"><mask id="r" class="C"><use xlink:href="#U"></use></mask><g class="B"><use xlink:href="#U" class="E"></use><ellipse mask="url(#r)" cx="0" cy="1.344" rx="1" ry="1.344" class="D"></ellipse></g></g><g transform="translate(232.207 217.717)"><mask id="s" class="C"><use xlink:href="#V"></use></mask><g class="B"><use xlink:href="#V" class="E"></use><ellipse mask="url(#s)" cx="0" cy="1.344" rx="1" ry="1.344" class="D"></ellipse></g></g><g transform="translate(232.207 223.092)"><mask id="t" class="C"><use xlink:href="#W"></use></mask><g class="B"><use xlink:href="#W" class="E"></use><ellipse mask="url(#t)" cx="0" cy="1.344" rx="1" ry="1.344" class="D"></ellipse></g></g><g transform="translate(232.207 228.468)"><mask id="u" class="C"><use xlink:href="#X"></use></mask><g class="B"><use xlink:href="#X" class="E"></use><ellipse mask="url(#u)" cx="0" cy="1.344" rx="1" ry="1.344" class="D"></ellipse></g></g><g transform="translate(235.793 215.925)"><mask id="v" class="C"><use xlink:href="#Y"></use></mask><g class="B"><use xlink:href="#Y" class="E"></use><ellipse mask="url(#v)" cx="0" cy="1.344" rx="1" ry="1.344" class="D"></ellipse></g></g><g transform="translate(235.793 221.301)"><mask id="w" class="C"><use xlink:href="#Z"></use></mask><g class="B"><use xlink:href="#Z" class="E"></use><ellipse mask="url(#w)" cx="0" cy="1.344" rx="1" ry="1.344" class="D"></ellipse></g></g><g transform="translate(235.793 226.676)"><mask id="x" class="C"><use xlink:href="#a"></use></mask><g class="B"><use xlink:href="#a" class="E"></use><ellipse mask="url(#x)" cx="0" cy="1.344" rx="1" ry="1.344" class="D"></ellipse></g></g><path d="M290.483 303.728c6.874-2.987 10.61-5.077 11.207-6.272s1.345-4.33 2.24-9.408c0-4.018-.598-5.213-1.793-3.584s-2.24 5.063-3.138 10.303l-10.3 6.272 1.793 2.688z" class="B D"></path></g></svg> 