<svg xmlns="http://www.w3.org/2000/svg" xmlns:xlink="http://www.w3.org/1999/xlink" width="483.413" height="560" viewBox="0 0 483.413 560"><defs><style>.a,.aa,.ab,.ac,.ad,.ae,.af,.ag,.ah,.ai,.aj,.ak,.al,.am,.an,.ao,.ap,.aq,.ar,.as,.at,.au,.av,.aw,.ax,.ay,.az,.b,.ba,.bb,.bc,.bd,.be,.bf,.bg,.bh,.bi,.bj,.bk,.bl,.bm,.bn,.bo,.bp,.bq,.br,.bs,.bt,.bu,.bv,.bw,.c,.d,.e,.f,.g,.h,.i,.j,.k,.l,.m,.n,.o,.p,.q,.r,.s,.t,.u,.v,.w,.x,.y,.z{fill-rule:evenodd;}.a{fill:url(#a);}.b{fill:#e23b93;}.c{fill:#f2f4ff;}.d{fill:#c5dbf1;}.e{fill:#dce8f8;}.f{fill:url(#b);}.g{fill:#fb84b6;}.h{fill:url(#c);}.i,.y{fill:#fff;}.j{fill:#9e9bf5;}.ad,.bw,.j,.o,.p,.v,.y,.z{opacity:0.5;}.k{fill:url(#d);}.l{fill:url(#e);}.m{fill:#485af4;}.n,.o{fill:#6bb6ff;}.p{fill:url(#f);}.q{fill:url(#g);}.r{fill:url(#h);}.s{fill:url(#i);}.t{fill:url(#j);}.u{fill:#9ed7fa;}.v{fill:url(#l);}.w{fill:url(#m);}.x{fill:#a67ef6;}.ab,.x{opacity:0.25;}.z{fill:url(#n);}.aa{fill:url(#o);}.ab,.ac{fill:#f786dc;}.ad{fill:#955cf1;}.ae{fill:url(#p);}.af{fill:#273087;}.ag{fill:url(#q);}.ah{fill:url(#r);}.ai{fill:url(#s);}.aj{fill:#f58c7e;}.ak{fill:url(#t);}.al{fill:url(#u);}.am{fill:#ffa698;}.an{fill:url(#v);}.ao{fill:#f969ac;}.ao,.bl{opacity:0.35;}.ap{fill:url(#w);}.aq{fill:#ff7b7b;}.ar{fill:url(#x);}.as{fill:url(#y);}.at{fill:#ff8f7f;}.au{fill:url(#z);}.av{fill:url(#aa);}.aw{fill:#8141e7;}.ax{fill:url(#ab);}.ay{fill:url(#ac);}.az{fill:#1e2353;opacity:0.3;}.ba{fill:#ffa495;}.bb{fill:#193161;}.bc{fill:url(#ad);}.bd{fill:#161d5c;}.be{fill:url(#ae);}.bf{fill:url(#af);}.bg{fill:url(#ag);}.bh{fill:#ff9281;}.bi{fill:url(#ah);}.bj{fill:url(#ai);}.bk{fill:url(#aj);}.bl{fill:#3469c0;}.bm{fill:url(#ak);}.bn{fill:#4a9ff8;}.bo{fill:url(#al);}.bp{fill:#ffb49c;}.bq{fill:#ff9d8e;}.br{fill:#562e65;}.bs{fill:url(#am);}.bt{fill:#ff9584;}.bu{fill:url(#an);}.bv{fill:url(#ao);}.bw{fill:url(#ap);}</style><linearGradient id="a" x1="0.624" y1="0.61" x2="0.174" y2="0.213" gradientUnits="objectBoundingBox"><stop offset="0" stop-color="#fa5db1"/><stop offset="1" stop-color="#febfbf"/></linearGradient><linearGradient id="b" x1="0.911" y1="0.787" x2="0.041" y2="0.266" xlink:href="#a"/><linearGradient id="c" x1="0.626" y1="0.118" x2="0.357" y2="0.931" xlink:href="#a"/><linearGradient id="d" x1="0.638" y1="0.304" x2="0.228" y2="0.857" gradientUnits="objectBoundingBox"><stop offset="0" stop-color="#d1e8ff"/><stop offset="1" stop-color="#eaefff"/></linearGradient><linearGradient id="e" x1="0.249" y1="0.574" x2="1.129" y2="0.313" gradientUnits="objectBoundingBox"><stop offset="0" stop-color="#6d6afe"/><stop offset="1" stop-color="#3fb0f7"/></linearGradient><linearGradient id="f" x1="0.669" y1="0.581" x2="-1.268" y2="-0.347" xlink:href="#e"/><linearGradient id="g" x1="0.566" y1="0.983" x2="0.475" y2="0.201" xlink:href="#d"/><linearGradient id="h" x1="0.627" y1="0.376" x2="0.362" y2="0.635" xlink:href="#d"/><linearGradient id="i" x1="0.465" y1="0.586" x2="0.588" y2="0.283" xlink:href="#e"/><linearGradient id="j" x1="0.872" y1="0.618" x2="-0.23" y2="0.268" xlink:href="#e"/><linearGradient id="l" x1="0.338" y1="0.089" x2="0.513" y2="0.799" gradientUnits="objectBoundingBox"><stop offset="0" stop-color="#d870ac"/><stop offset="1" stop-color="#58469c"/></linearGradient><linearGradient id="m" x1="0.401" y1="0.729" x2="0.642" y2="0.192" gradientUnits="objectBoundingBox"><stop offset="0" stop-color="#a77ef7"/><stop offset="1" stop-color="#5e65d6"/></linearGradient><linearGradient id="n" x1="0.396" y1="0.089" x2="0.571" y2="0.8" xlink:href="#l"/><linearGradient id="o" x1="0.631" y1="0.13" x2="0.395" y2="0.814" gradientUnits="objectBoundingBox"><stop offset="0" stop-color="#965cf2"/><stop offset="1" stop-color="#ff8adc"/></linearGradient><linearGradient id="p" x1="0.251" y1="0.38" x2="0.78" y2="0.54" gradientUnits="objectBoundingBox"><stop offset="0" stop-color="#ff8a78"/><stop offset="1" stop-color="#ffa799"/></linearGradient><linearGradient id="q" x1="0.542" y1="0.511" x2="0.058" y2="0.441" gradientUnits="objectBoundingBox"><stop offset="0" stop-color="#ffb89e"/><stop offset="1" stop-color="#ffa799"/></linearGradient><linearGradient id="r" x1="0.846" y1="0.366" x2="0.232" y2="0.514" gradientUnits="objectBoundingBox"><stop offset="0" stop-color="#3e4795"/><stop offset="1" stop-color="#273088"/></linearGradient><linearGradient id="s" x1="0.527" y1="0.317" x2="0.292" y2="0.856" gradientUnits="objectBoundingBox"><stop offset="0" stop-color="#5a2d68"/><stop offset="1" stop-color="#22043d"/></linearGradient><linearGradient id="t" x1="0.559" y1="0.355" x2="0.36" y2="0.813" xlink:href="#s"/><linearGradient id="u" x1="0.534" y1="0.885" x2="0.488" y2="0.319" xlink:href="#p"/><linearGradient id="v" x1="0.12" y1="0.698" x2="0.54" y2="0.364" gradientUnits="objectBoundingBox"><stop offset="0" stop-color="#fa79b6"/><stop offset="1" stop-color="#ffbfbf"/></linearGradient><linearGradient id="w" x1="0.22" y1="0.69" x2="1.182" y2="0.176" xlink:href="#v"/><linearGradient id="x" x1="0.478" y1="0.533" x2="0.406" y2="0.851" xlink:href="#p"/><linearGradient id="y" x1="0.912" y1="0.373" x2="0.409" y2="0.782" xlink:href="#q"/><linearGradient id="z" x1="0.554" y1="0.444" x2="0.495" y2="0.539" xlink:href="#q"/><linearGradient id="aa" x1="0.337" y1="0.578" x2="2.818" y2="0.038" xlink:href="#v"/><linearGradient id="ab" x1="0.326" y1="0.778" x2="0.739" y2="0.12" xlink:href="#o"/><linearGradient id="ac" x1="0.823" y1="0.249" x2="-0.047" y2="0.764" gradientUnits="objectBoundingBox"><stop offset="0" stop-color="#235da3"/><stop offset="1" stop-color="#123a76"/></linearGradient><linearGradient id="ad" x1="0.55" y1="0.319" x2="0.119" y2="0.954" xlink:href="#ac"/><linearGradient id="ae" x1="0.903" y1="0.109" x2="0.104" y2="0.648" xlink:href="#ac"/><linearGradient id="af" x1="0.499" y1="0.263" x2="0.501" y2="0.909" xlink:href="#ac"/><linearGradient id="ag" x1="0.555" y1="0.376" x2="0.382" y2="1.058" xlink:href="#ac"/><linearGradient id="ah" x1="0.46" y1="0.444" x2="0.683" y2="0.905" xlink:href="#e"/><linearGradient id="ai" x1="0.368" y1="0.828" x2="0.65" y2="0.127" xlink:href="#m"/><linearGradient id="aj" x1="0.378" y1="0.136" x2="0.773" y2="0.876" xlink:href="#e"/><linearGradient id="ak" x1="0.563" y1="0.285" x2="0.449" y2="0.78" xlink:href="#p"/><linearGradient id="al" x1="0.871" y1="0.454" x2="-0.148" y2="0.657" xlink:href="#q"/><linearGradient id="am" x1="1.163" y1="0.539" x2="0.333" y2="0.478" gradientUnits="objectBoundingBox"><stop offset="0" stop-color="#8a4791"/><stop offset="1" stop-color="#562e65"/></linearGradient><linearGradient id="an" x1="0.395" y1="0.116" x2="0.718" y2="0.738" xlink:href="#e"/><linearGradient id="ao" x1="0.413" y1="0.796" x2="0.614" y2="0.204" xlink:href="#o"/><linearGradient id="ap" x1="0.432" y1="1.064" x2="0.482" y2="0.483" xlink:href="#o"/></defs><g transform="translate(0 -0.004)"><g transform="translate(159.433 0.004)"><g transform="translate(146.649 0)"><g transform="translate(101.705 81.221)"><g transform="translate(15.075 6.073)"><path class="a" d="M1233.357,326.509l-47.787-27.771,11.093-52.656,0-.014v-.018l0-.014v0l0-.018v0l0-.011,0-.011v0l0-.018h0l0-.018,0-.011,0-.011,0-.018h0l0-.018v-.007l0-.014,0-.014v0l.007-.021v0l.007-.018,0-.011,0-.011.007-.021h0l.007-.021,0-.007,0-.014.007-.018v0l.007-.021,0-.007.007-.018.007-.014,0-.007.007-.021v0l.007-.021,0-.011,0-.011.011-.021v0l.011-.021,0-.007.007-.014.007-.018,0,0,.011-.021v0l.011-.018.007-.014,0-.011.011-.021h0l.011-.021,0-.011.007-.014.011-.018,0,0,.014-.021,0-.007.011-.018.011-.014,0-.007.014-.021h0l.014-.021.007-.011.007-.011.014-.018h0l.014-.021,0-.007.011-.014.014-.021.014-.021,0,0,.014-.018.011-.011.007-.007.018-.018.018-.018.007-.007.011-.011.014-.014,0,0,.018-.018,0,0,.014-.011.014-.011.007,0,.018-.014h0l.018-.014.011-.007.011-.007.018-.014h0l.021-.014.007,0,.014-.007a.793.793,0,0,1,.713-.032l47.784,27.771C1244.307,271.742,1237.951,310.983,1233.357,326.509Z" transform="translate(-1185.57 -244.748)"/><path class="b" d="M1196.673,248.49c20.07,23,44.01,37.2,41.67,57.164l-4.976,23.262-47.787-27.771Z" transform="translate(-1185.577 -247.155)"/></g><g transform="translate(10.998)"><path class="c" d="M1225.341,257.9l-1.081,53.4-50.12-28.93.15-52.945Z" transform="translate(-1174.14 -228.82)"/><path class="d" d="M1314.81,309.46l1.049-.61-.15,52.945-1.049.6Z" transform="translate(-1264.54 -279.913)"/><path class="e" d="M1174.56,228.33l1.052-.61,50.116,28.937-1.049.61Z" transform="translate(-1174.41 -227.72)"/><path class="d" d="M1226.04,309.322l-.011,3.338-46.389-26.783.011-3.338,46.389,26.783Zm.1-38.389,0,3.338-46.389-26.783.011-3.338,46.382,26.783Zm-.014,5.482-46.385-26.783-.011,3.338,46.382,26.783.014-3.338Zm-.018,5.486-46.389-26.779,0,3.338,46.382,26.779.011-3.338Zm-.014,5.486L1179.708,260.6l-.011,3.338,46.389,26.783.011-3.338Zm-.014,5.482-46.389-26.783-.011,3.338,46.389,26.783.011-3.338Zm-.014,5.486-46.389-26.783-.011,3.338,46.389,26.783.011-3.338Zm-.014,5.486-46.389-26.783-.011,3.338,46.389,26.783Z" transform="translate(-1177.678 -238.29)"/></g><path class="f" d="M1193.245,300.617l11.392,40.062v0a4.768,4.768,0,0,0,.7,1.273l-47.784-27.767a1.9,1.9,0,0,1-.7-1.273l-11.392-40.062.011.007-2.136-7.512a1.938,1.938,0,0,1,.41-1.359c1.983,1.808,12.58,8.293,14.535,9.441,3.274,2.565,3.385,5.732,8.343,10.986a8.631,8.631,0,0,0,2.454,1.965Z" transform="translate(-1143.313 -251.053)"/><path class="b" d="M1283.835,336.831a1.353,1.353,0,0,1,.235-.171c.375-.214.71-.121.82.246l11.285,39.737,11.093-52.656a1.891,1.891,0,0,1,.81-1.188,1.165,1.165,0,0,1,.232-.1c.457-.121.728.267.6.86l-11.157,53.009a8.035,8.035,0,0,1-.678,2.076,2.375,2.375,0,0,1-.9,1.013.779.779,0,0,1-.885.021,2.374,2.374,0,0,1-.646-1.238l-11.4-40.065A1.758,1.758,0,0,1,1283.835,336.831Z" transform="translate(-1233.314 -288.809)"/><path class="g" d="M1170.557,283.985l24.1,14.007c-.628-.307-1.587,1.1-1.423,1.773l-24.343-14.146a14.758,14.758,0,0,1-2.029-1.313c-3.46-2.732-5.093-6.477-7.355-9.505a9.636,9.636,0,0,0-1.94-1.962c-.6-.328-.92-.5-.813-.449l-13.436-7.907a1.964,1.964,0,0,1,.414-1.348c.253-.271.653-.6,1.013-.414l13.457,7.922c-.107-.053.21.121.813.449a9.629,9.629,0,0,1,1.937,1.962c2.393,3.207,4.105,6.809,7.982,9.866A13.2,13.2,0,0,0,1170.557,283.985Z" transform="translate(-1143.305 -250.2)"/></g><path class="h" d="M883.136,54.424c-12.783-7.39-23.929-24.817-24.91-38.938S866.811-4.092,879.591,3.3,903.52,28.123,904.5,42.236,895.909,61.807,883.136,54.424Z" transform="translate(-858.157 -0.004)"/><path class="i" d="M900.746,52.69l3.388,1.694L889.086,77.29,875.8,57.591l4.376,1.708,7.016,6.663Z" transform="translate(-869.507 -33.898)"/></g><g transform="translate(0 12.073)"><g transform="translate(60.041 17.569)"><path class="j" d="M801.914,1159.478l-146.422-83.629c-5.436-2.483-13.418-4.826-18.75-1.577l-13.636,8.307c-2.743,1.673-11.767,7.219-5.732,10.5,17.752,9.652,131.178,75.925,149.2,85.73,3.41,1.855,8.4,2.525,13.632,2.09a34.218,34.218,0,0,0,14.763-4.4l5.446-3.36c3.852-2.375,5.981-4.969,6.188-7.458C806.811,1163.255,805.249,1161,801.914,1159.478Z" transform="translate(-615.336 -719.727)"/><g transform="translate(1.717)"><path class="k" d="M810.837,513.8c-.021,7.119-2.561,12.131-6.616,14.488l-6.442,3.873c-22.092-9.427-13.892-121.38-15.241-153.206l6.784-167.027c-5.7-9.965-27.646-18.665-22.524-39.017L702.051,142.6c-2.875-1.955-78.433-45.711-64.868-53.918,2.268-1.373,4.512-2.754,6.752-4.055,5.008-2.964,11.389-1.131,16.075,1.573h0l128.838,73.9c12.644,7.287,22.563,24.917,22.528,39.013Z" transform="translate(-630.06 -83.111)"/><path class="i" d="M620.688,110.448c.018-6.98,2.436-11.934,6.352-14.349,4.127-2.543,9.916-2.268,16.318,1.43l128.838,73.9c12.469,7.2,22.563,24.685,22.524,39.017l-.539,314.687c-.039,14.328-10.2,20.12-22.674,12.922l-128.834-73.9c-12.484-7.208-22.567-24.685-22.524-39.017Z" transform="translate(-620.15 -90.392)"/><path class="l" d="M620.688,110.448c.018-6.98,2.436-11.934,6.352-14.349,4.127-2.543,9.916-2.268,16.318,1.43l128.838,73.9c12.469,7.2,22.563,24.685,22.524,39.017l-.539,314.687c-.039,14.328-10.2,20.12-22.674,12.922l-128.834-73.9c-12.484-7.208-22.567-24.685-22.524-39.017Z" transform="translate(-620.15 -90.392)"/><g transform="translate(58.755 43.054)"><path class="m" d="M1048.162,357.048c3.378,1.951,6.12.385,6.131-3.5A13.435,13.435,0,0,0,1048.2,343c-3.374-1.947-6.12-.385-6.131,3.5A13.441,13.441,0,0,0,1048.162,357.048Z" transform="translate(-950.337 -292.819)"/><path class="m" d="M784.884,204.987c0-1.056.753-1.473,1.673-.924,13.39,7.565,35.329,19.913,48.715,27.478a3.734,3.734,0,0,1,1.662,2.907v2.09c0,1.056-.753,1.473-1.673.924-13.39-7.565-35.329-19.913-48.718-27.478a3.734,3.734,0,0,1-1.662-2.9Z" transform="translate(-784.88 -203.821)"/></g><g transform="translate(28.259 170.07)"><path class="n" d="M782.24,563.106c.007-2.875,2.044-4.006,4.551-2.518l56.619,31.99a10.18,10.18,0,0,1,4.523,7.907v5.693c-.007,2.875-2.047,4.005-4.551,2.518L786.763,576.7a10.165,10.165,0,0,1-4.523-7.907Z" transform="translate(-752.686 -559.933)"/><path class="o" d="M699.38,589.768c.007-2.532,1.8-3.527,4.009-2.219,32.1,18.137,84.71,47.748,116.807,65.885a8.974,8.974,0,0,1,3.984,6.966v5.015c-.007,2.532-1.8,3.527-4.009,2.219-32.1-18.137-84.71-47.748-116.807-65.888a8.958,8.958,0,0,1-3.984-6.966Z" transform="translate(-699.38 -577.329)"/></g><g transform="translate(30.168 227.116)"><path class="p" d="M716.92,725.259c.011-3.731,2.654-5.24,5.9-3.363,34.433,19.749,68.8,40.194,103.232,59.946A12.939,12.939,0,0,1,831.919,792l.168,136.31c-.011,3.731-2.657,5.24-5.9,3.363-34.433-19.753-68.8-40.2-103.232-59.946a12.93,12.93,0,0,1-5.864-10.158Z" transform="translate(-712.572 -720.655)"/><path class="q" d="M709.67,722.111l3.952-1.976a4.069,4.069,0,0,1,3.742.5c32.543,18.665,65.015,37.986,97.561,56.651a12.227,12.227,0,0,1,5.543,9.6l.161,128.824a4.249,4.249,0,0,1-1.177,3.239,34.431,34.431,0,0,1-4.637,2.415c-32.543-18.665-64.786-40.465-97.326-59.129a12.217,12.217,0,0,1-5.543-9.6Z" transform="translate(-707.908 -719.872)"/><path class="r" d="M704.73,729.25c.011-3.528,2.507-4.954,5.578-3.178,32.543,18.665,65.018,37.986,97.561,56.651a12.237,12.237,0,0,1,5.543,9.6l.161,128.824c-.011,3.524-2.511,4.951-5.578,3.178-32.543-18.665-65.022-37.989-97.561-56.651a12.217,12.217,0,0,1-5.543-9.6Z" transform="translate(-704.73 -723.369)"/><path class="i" d="M819.265,861.593a2.491,2.491,0,0,1,.992-2.236,2.464,2.464,0,0,1,2.543.221l4.362,2.5a22.646,22.646,0,0,0,6.438,5.9c2.383,1.377,4.523,1.783,6.192,1.345l3.085,1.769a7.743,7.743,0,0,1,3.51,6.081l-.021,13.186q-13.568-7.9-27.125-15.833l.025-12.937Zm14.156,3.806c4.583,2.646,8.014.692,7.665-4.373s-4.351-11.317-8.931-13.967-8.014-.692-7.665,4.373S828.835,862.749,833.421,865.4Z" transform="translate(-778.397 -800.934)"/><path class="i" d="M720.46,903.533c0-1.462,1.038-2.054,2.311-1.316q46.477,26.654,92.939,53.319a5.074,5.074,0,0,1,2.3,3.977l.068,14.46c0,1.462-1.041,2.051-2.311,1.32q-46.476-26.66-92.939-53.319a5.065,5.065,0,0,1-2.3-3.977Z" transform="translate(-714.85 -836.974)"/><path class="s" d="M765.14,1083.656c0-1.462,1.038-2.051,2.311-1.316q25.119,14.408,50.252,28.791a5.065,5.065,0,0,1,2.3,3.977l.068,14.459c0,1.463-1.042,2.051-2.311,1.316q-25.119-14.408-50.252-28.791a5.065,5.065,0,0,1-2.3-3.977Z" transform="translate(-743.593 -952.853)"/><path class="i" d="M720.46,977.533c0-1.462,1.038-2.054,2.311-1.316q46.477,26.654,92.939,53.319a5.075,5.075,0,0,1,2.3,3.977l.068,14.459c0,1.462-1.041,2.051-2.311,1.316q-46.476-26.66-92.939-53.319a5.065,5.065,0,0,1-2.3-3.977Z" transform="translate(-714.85 -884.58)"/><g transform="translate(85.88 116.52)"><path class="t" d="M952.094,1060.9a14.5,14.5,0,0,1-6.566-10.265c-.257-3.72,2.265-5.161,5.632-3.214a14.513,14.513,0,0,1,6.566,10.265C957.986,1061.413,955.461,1062.851,952.094,1060.9Z" transform="translate(-945.51 -1046.557)"/><path class="i" d="M956.737,1060.45l.892.446-3.966,6.038-3.5-5.193,1.152.453,1.851,1.755Z" transform="translate(-948.501 -1055.495)"/></g><g transform="translate(85.88 141.534)"><path class="t" d="M952.094,1131.034a14.5,14.5,0,0,1-6.566-10.265c-.257-3.72,2.265-5.161,5.632-3.214a14.513,14.513,0,0,1,6.566,10.265C957.986,1131.544,955.461,1132.981,952.094,1131.034Z" transform="translate(-945.51 -1116.687)"/><path class="i" d="M956.737,1130.57l.892.449-3.966,6.038-3.5-5.193,1.152.449,1.851,1.758Z" transform="translate(-948.501 -1125.618)"/></g><g transform="translate(10.1 73.91)"><path class="u" d="M736.483,928.126a.667.667,0,0,1,1.33-.089l.225,3.235,1.9-1.095a.666.666,0,1,1,.663,1.156l-1.823,1.049,2.732,1.58a.666.666,0,0,1-.667,1.152l-1.4-.81,1.47,2.34a.668.668,0,0,1-1.131.71l-1.487-2.368.114,1.651a.667.667,0,1,1-1.33.089l-.225-3.235-1.648.949a.666.666,0,0,1-.663-1.156l1.569-.906-2.732-1.58a.666.666,0,1,1,.667-1.152l1.4.81-1.469-2.34a.667.667,0,1,1,1.131-.71l1.487,2.368Z" transform="translate(-733.047 -927.092)"/><path class="u" d="M775.767,950.592a.667.667,0,1,1,1.33-.089l.225,3.235,1.9-1.1a.666.666,0,1,1,.663,1.156l-1.823,1.049,2.732,1.58a.667.667,0,1,1-.671,1.152l-1.4-.81,1.469,2.34a.667.667,0,0,1-1.131.71l-1.487-2.368.114,1.651a.667.667,0,0,1-1.33.089l-.225-3.235-1.648.949a.666.666,0,1,1-.663-1.156l1.569-.9-2.732-1.58a.666.666,0,1,1,.667-1.152l1.4.81-1.469-2.34a.668.668,0,0,1,1.131-.71l1.487,2.368Z" transform="translate(-758.317 -941.547)"/><path class="u" d="M814.183,972.436a.667.667,0,1,1,1.33-.089l.225,3.235,1.9-1.1a.666.666,0,1,1,.663,1.156l-1.823,1.049,2.732,1.58a.666.666,0,1,1-.667,1.152l-1.4-.81,1.47,2.34a.668.668,0,0,1-1.131.71l-1.487-2.368.114,1.651a.667.667,0,0,1-1.33.089l-.225-3.235-1.648.949a.666.666,0,1,1-.663-1.156l1.569-.906-2.732-1.58a.666.666,0,0,1,.667-1.152l1.4.81-1.47-2.34a.668.668,0,0,1,1.131-.71l1.487,2.368Z" transform="translate(-783.034 -955.598)"/><path class="u" d="M852.587,994.292a.667.667,0,0,1,1.33-.089l.225,3.235,1.9-1.1a.666.666,0,0,1,.663,1.156l-1.823,1.049,2.732,1.58a.666.666,0,1,1-.671,1.152l-1.4-.81,1.469,2.34a.668.668,0,0,1-1.131.71l-1.487-2.368.114,1.651a.667.667,0,0,1-1.33.089l-.225-3.235-1.648.949a.666.666,0,1,1-.663-1.156l1.569-.9-2.732-1.58a.666.666,0,0,1,.667-1.152l1.4.81-1.469-2.34a.667.667,0,1,1,1.131-.71l1.487,2.368Z" transform="translate(-807.737 -969.661)"/></g><g transform="translate(10.1 100.058)"><path class="u" d="M736.483,1001.432a.667.667,0,1,1,1.33-.089l.225,3.235,1.9-1.1a.666.666,0,1,1,.663,1.156l-1.823,1.049,2.732,1.58a.666.666,0,0,1-.667,1.152l-1.4-.81,1.47,2.34a.668.668,0,0,1-1.131.71l-1.487-2.368.114,1.651a.667.667,0,0,1-1.33.089l-.225-3.235-1.648.949a.666.666,0,1,1-.663-1.156l1.569-.9-2.732-1.58a.666.666,0,1,1,.667-1.152l1.4.81-1.469-2.34a.667.667,0,0,1,1.131-.71l1.487,2.368Z" transform="translate(-733.047 -1000.402)"/><path class="u" d="M775.767,1023.892a.667.667,0,0,1,1.33-.089l.225,3.235,1.9-1.095a.666.666,0,1,1,.663,1.156l-1.823,1.049,2.732,1.58a.668.668,0,0,1-.671,1.156l-1.4-.81,1.469,2.34a.667.667,0,1,1-1.131.71l-1.487-2.368.114,1.651a.667.667,0,0,1-1.33.089l-.225-3.235-1.648.949a.666.666,0,0,1-.663-1.156l1.569-.906-2.732-1.58a.666.666,0,1,1,.667-1.152l1.4.81-1.469-2.34a.667.667,0,0,1,1.131-.71l1.487,2.368Z" transform="translate(-758.317 -1014.851)"/><path class="u" d="M814.183,1045.742a.667.667,0,1,1,1.33-.089l.225,3.235,1.9-1.095a.666.666,0,1,1,.663,1.156L816.48,1050l2.732,1.58a.666.666,0,1,1-.667,1.152l-1.4-.81,1.47,2.34a.667.667,0,0,1-1.131.71l-1.487-2.368.114,1.651a.667.667,0,0,1-1.33.089l-.225-3.235-1.648.949a.666.666,0,1,1-.663-1.156l1.569-.9-2.732-1.58a.666.666,0,0,1,.667-1.152l1.4.81-1.47-2.34a.668.668,0,0,1,1.131-.71l1.487,2.368Z" transform="translate(-783.034 -1028.908)"/><path class="u" d="M852.587,1067.592a.667.667,0,1,1,1.33-.089l.225,3.235,1.9-1.095a.666.666,0,1,1,.663,1.156l-1.823,1.049,2.732,1.58a.667.667,0,1,1-.671,1.152l-1.4-.81,1.469,2.34a.668.668,0,0,1-1.131.71l-1.487-2.368.114,1.651a.667.667,0,1,1-1.33.089l-.225-3.235-1.648.949a.666.666,0,1,1-.663-1.156l1.569-.9-2.732-1.58a.666.666,0,0,1,.667-1.152l1.4.81-1.469-2.34a.667.667,0,0,1,1.131-.71l1.487,2.368Z" transform="translate(-807.737 -1042.964)"/></g></g><path class="n" d="M794.551,404.774a8.857,8.857,0,0,1,.692-3.577,6.026,6.026,0,0,1,2.336-2.736,5.9,5.9,0,0,1,3.684-.835,8.9,8.9,0,0,1,3.627,1.22l8.8,5.047.292.385a47.6,47.6,0,0,0,5.664,6.253,34.871,34.871,0,0,0,6.028,4.483,19.983,19.983,0,0,0,5.675,2.311,9.642,9.642,0,0,0,4.455.036l.942-.246c1.259.724,6.267,3.381,6.777,3.891a17.256,17.256,0,0,1,7.932,13.746l-.032,17.638c.125,4.726-.029,7.223-2.368,8.243-1.99.867-4.408-.317-8.835-2.921-4.926-2.9-10.711-6.3-18.825-11.039-7.134-4.17-13.564-7.911-18.857-10.964l-.86-.492,0,.007c-6.755-3.877-7.173-4.12-7.159-12.944l.032-17.506Zm5.033-1.666a4.141,4.141,0,0,0-.3,1.666l-.029,17.5c-.011,6.071.267,6.235,4.783,8.824v.011l.863.5c7.308,4.216,13.464,7.79,18.893,10.964,4.448,2.6,11.214,6.577,18.825,11.057,3.035,1.787,4.537,2.668,4.551,2.661.335-.146-.4-1.17-.471-3.791l.032-17.745a12.551,12.551,0,0,0-5.564-9.641l-5.161-2.957a14.76,14.76,0,0,1-5.653-.2,24.718,24.718,0,0,1-7.048-2.85,39.429,39.429,0,0,1-6.845-5.1,51.885,51.885,0,0,1-5.939-6.474l-7.993-4.587a4.176,4.176,0,0,0-1.669-.6,1.313,1.313,0,0,0-.792.132,1.346,1.346,0,0,0-.485.624Zm26.1,9.673c3.849,2.764,6.727,3.132,9.206,2.564A9.4,9.4,0,0,0,839.221,414a9.139,9.139,0,0,0,3.128-3.264,14.962,14.962,0,0,0,1.623-8.574c-.364-5.264-2.6-11.1-5.91-16.282a38.44,38.44,0,0,0-12.448-12.469,16.479,16.479,0,0,0-9.209-2.568,9.4,9.4,0,0,0-4.334,1.345,9.139,9.139,0,0,0-3.128,3.264,14.963,14.963,0,0,0-1.623,8.574c.364,5.268,2.6,11.107,5.906,16.286a38.391,38.391,0,0,0,12.455,12.469Zm-8.464-15.009a33.588,33.588,0,0,0,10.839,10.911,11.906,11.906,0,0,0,6.516,1.937,4.752,4.752,0,0,0,2.165-.656,4.432,4.432,0,0,0,1.512-1.594,10.422,10.422,0,0,0,.992-5.885c-.307-4.469-2.261-9.513-5.168-14.057a33.58,33.58,0,0,0-10.836-10.911,11.884,11.884,0,0,0-6.516-1.937,4.737,4.737,0,0,0-2.161.656,4.4,4.4,0,0,0-1.512,1.594,10.391,10.391,0,0,0-.992,5.885C812.36,388.185,814.315,393.228,817.218,397.773Z" transform="translate(-732.326 -268.2)"/></g></g><g transform="translate(193.15 139.845)"><path class="v" d="M991.1,432.074l5.917-3.374,43.061,118.095-.221,50.37-6.805,2.575q-17.944-10.465-35.906-20.8a12.966,12.966,0,0,1-5.882-10.187Z" transform="translate(-990.183 -427.713)"/><path class="c" d="M993.16,427.516l2.711-1.434a4.3,4.3,0,0,1,3.453.61c32.418,18.593,64.768,37.84,97.19,56.437a12.183,12.183,0,0,1,5.521,9.562l.161,128.331a4.042,4.042,0,0,1-1.373,3.388c-1.02.756-3.125,2.39-4.79,1.427-32.418-18.593-64.169-39.495-96.584-58.088a12.165,12.165,0,0,1-5.521-9.562Z" transform="translate(-991.509 -425.934)"/><path class="i" d="M988.53,433.3c.011-3.513,2.5-4.933,5.557-3.167,32.418,18.593,64.768,37.84,97.19,56.437a12.184,12.184,0,0,1,5.521,9.562l.16,128.332c-.011,3.513-2.5,4.929-5.557,3.167-32.418-18.593-64.776-37.843-97.19-56.437a12.165,12.165,0,0,1-5.521-9.562Z" transform="translate(-988.53 -428.146)"/><path class="w" d="M988.54,433.3c.011-3.513,2.5-4.933,5.557-3.167,32.418,18.593,64.769,37.84,97.19,56.437a12.184,12.184,0,0,1,5.521,9.562l.114,100.843-108.269-62.1Z" transform="translate(-988.536 -428.146)"/><g transform="translate(8.043 118.618)"><path class="x" d="M1011.08,760.173c0-1.516,1.077-2.111,2.4-1.327l29.857,16.871a5.373,5.373,0,0,1,2.386,4.169v3c0,1.516-1.081,2.112-2.4,1.327l-29.857-16.871a5.363,5.363,0,0,1-2.386-4.169Z" transform="translate(-1011.08 -758.5)"/><path class="x" d="M1011.08,797.429c0-1.338.949-1.862,2.115-1.17,16.928,9.566,44.67,25.181,61.6,34.744a4.734,4.734,0,0,1,2.1,3.674v2.643c0,1.338-.952,1.862-2.115,1.17-16.928-9.566-44.67-25.181-61.6-34.744a4.719,4.719,0,0,1-2.1-3.674Z" transform="translate(-1011.08 -782.595)"/></g><g transform="translate(85.884 63.669)"><path class="y" d="M1236.368,604.669c4.316,1.141,8.179,6.249,8.625,11.41s-2.689,8.417-7.005,7.276-8.179-6.249-8.625-11.41S1232.048,603.528,1236.368,604.669Z" transform="translate(-1229.32 -604.441)"/><path class="i" d="M1243.754,617.792c2.186.578,4.144,3.167,4.373,5.785s-1.362,4.266-3.552,3.688-4.145-3.167-4.373-5.782S1241.564,617.214,1243.754,617.792Z" transform="translate(-1236.307 -612.956)"/></g><path class="i" d="M1008.3,622.194c-1.762-5.422-6.238-16.307-6.73-21.985-.5-5.782,3.014-9.43,7.847-8.15s9.159,7,9.662,12.78c.539,6.178-6.837,12.559-10.779,17.356Zm1.045-26.159c-2.91-.77-5.029,1.427-4.726,4.908s2.907,6.927,5.817,7.7,5.025-1.427,4.726-4.908S1012.263,596.806,1009.349,596.035Z" transform="translate(-996.891 -532.641)"/><path class="i" d="M1017.755,650.488a.91.91,0,0,0,1.477,1.063c.71-.977,1.423-1.944,2.151-2.91a.91.91,0,0,0-1.452-1.1c-.735.977-1.462,1.955-2.176,2.946Zm81.778-16.91a.911.911,0,0,0-1.808-.221,28.956,28.956,0,0,1-.613,3.485.911.911,0,0,0,1.773.417,31.288,31.288,0,0,0,.649-3.681Zm-2.408,9.017a.91.91,0,0,0-1.669-.728,23.619,23.619,0,0,1-1.619,3.11.91.91,0,0,0,1.544.963,24.824,24.824,0,0,0,1.744-3.346Zm-5.343,7.758a.909.909,0,0,0-1.216-1.352,13.407,13.407,0,0,1-2.775,1.969.909.909,0,0,0,.842,1.612,15.08,15.08,0,0,0,3.15-2.229Zm-8.821,3.659a.91.91,0,0,0,.018-1.819,10.945,10.945,0,0,1-3.31-.517.91.91,0,0,0-.563,1.73,12.752,12.752,0,0,0,3.856.606Zm-8.938-3.239a.91.91,0,0,0,1.073-1.469,24.179,24.179,0,0,1-2.675-2.268.911.911,0,0,0-1.277,1.3,27.516,27.516,0,0,0,2.878,2.44Zm-6.563-6.638a.91.91,0,0,0,1.452-1.1c-.724-.952-1.405-1.919-2.065-2.918a.91.91,0,0,0-1.527.992c.674,1.034,1.395,2.044,2.14,3.025Zm-4.972-7.733a.911.911,0,0,0,1.566-.931,25.347,25.347,0,0,0-2.1-3.114.91.91,0,0,0-1.427,1.131c.667,1,1.33,1.84,1.965,2.914Zm-5.664-6.549a.91.91,0,0,0,1.049-1.487,15.07,15.07,0,0,0-3.4-1.84.911.911,0,0,0-.631,1.708,12.846,12.846,0,0,1,2.982,1.619Zm-7.979-2.383a.911.911,0,0,0-.093-1.819,17.683,17.683,0,0,0-3.784.642.911.911,0,0,0,.5,1.751,15.752,15.752,0,0,1,3.378-.574Zm-8.207,2.611a.909.909,0,0,0-.881-1.591,35.1,35.1,0,0,0-3.167,1.983.91.91,0,0,0,1.045,1.491,30.9,30.9,0,0,1,3-1.883Zm-7.2,5.2a.911.911,0,0,0-1.206-1.366c-.931.82-1.808,1.662-2.7,2.518a.911.911,0,0,0,1.284,1.291c.838-.835,1.73-1.662,2.622-2.443Zm-6.338,6.367a.91.91,0,0,0-1.363-1.206c-.813.917-1.6,1.844-2.39,2.786a.911.911,0,0,0,1.4,1.163Q1025.9,643.005,1027.1,641.653Z" transform="translate(-1007.212 -554.416)"/><g transform="translate(6.42 92.511)"><path class="y" d="M1009.976,685.418c2.112.556,4,3.057,4.216,5.578s-1.316,4.116-3.424,3.556-4-3.057-4.216-5.578S1007.864,684.858,1009.976,685.418Z" transform="translate(-1006.531 -685.306)"/><path class="i" d="M1013.588,691.829a3.313,3.313,0,0,1,2.136,2.828c.111,1.28-.667,2.086-1.737,1.8a3.313,3.313,0,0,1-2.136-2.828C1011.74,692.353,1012.518,691.547,1013.588,691.829Z" transform="translate(-1009.947 -689.466)"/></g></g><path class="z" d="M630.524,142.99q14.563,8.485,29.14,16.867a11.843,11.843,0,0,1,5.368,9.3l.153,124.818c-.011,3.417-2.432,4.8-5.407,3.078L621,274.567l-.061-30.852Z" transform="translate(-558.9 -104.064)"/><path class="c" d="M451.22,35.3l2.475-1.309a3.929,3.929,0,0,1,3.153.56C486.452,51.525,516,69.1,545.6,86.083a11.119,11.119,0,0,1,5.04,8.731L550.786,212a3.706,3.706,0,0,1-1.252,3.1c-.931.688-2.853,2.183-4.376,1.305-29.6-16.981-58.6-36.067-88.2-53.045a11.11,11.11,0,0,1-5.04-8.731Z" transform="translate(-449.715 -33.853)"/><path class="i" d="M447,40.583c.011-3.207,2.283-4.5,5.075-2.893,29.6,16.978,59.144,34.555,88.751,51.536a11.119,11.119,0,0,1,5.04,8.731l.146,117.189c-.011,3.207-2.283,4.5-5.076,2.889-29.6-16.981-59.151-34.558-88.751-51.536a11.113,11.113,0,0,1-5.043-8.731Z" transform="translate(-447 -35.876)"/><path class="aa" d="M447,40.583c.011-3.207,2.283-4.5,5.075-2.893,29.6,16.978,59.147,34.555,88.751,51.536a11.119,11.119,0,0,1,5.04,8.731l.1,92.086L447.1,133.34Z" transform="translate(-447 -35.876)"/><g transform="translate(7.337 108.316)"><path class="ab" d="M467.577,339.063c0-1.384.984-1.93,2.19-1.213l27.264,15.4a4.89,4.89,0,0,1,2.176,3.809V359.8c0,1.384-.988,1.93-2.194,1.213l-27.264-15.4a4.9,4.9,0,0,1-2.179-3.809Z" transform="translate(-467.57 -337.535)"/><path class="ab" d="M467.59,373.091c0-1.22.867-1.7,1.93-1.066,15.458,8.735,40.793,22.995,56.251,31.726a4.314,4.314,0,0,1,1.919,3.356v2.415c0,1.22-.87,1.7-1.93,1.066-15.458-8.735-40.793-22.995-56.251-31.73a4.313,4.313,0,0,1-1.919-3.353Z" transform="translate(-467.583 -359.543)"/></g><path class="ac" d="M531.5,174.971l-.1,58.234,16.343,9.527.1-58.234L531.5,174.971ZM482.421,128.65l-.164,77.948,16.343,9.527.164-77.948-16.343-9.527ZM506.9,156.278l-.125,64.608,16.343,9.527.125-64.608L506.9,156.278Zm-49.05-22.2-.1,58.234,16.343,9.527.1-58.234Z" transform="translate(-453.916 -94.838)"/><g transform="translate(3.422 60.284)"><path class="ad" d="M456.918,204.636a.95.95,0,0,1,.082-1.491,1.391,1.391,0,0,1,1.748.071l15.483,14.5,7.5,3.2,16.079-3.281,9.762-10.693a1.392,1.392,0,0,1,1.741-.185,1.142,1.142,0,0,1,.271.25l22.948,24.628,13.989,3.449A1.174,1.174,0,0,1,547.8,236.1a1.142,1.142,0,0,1-1.191,1.091l-14.584-3.431a1.336,1.336,0,0,1-1.056-.407l-22.413-24.04-9.045,9.908,0,0a1.28,1.28,0,0,1-.688.378l-16.946,3.456a1.419,1.419,0,0,1-.838-.082L473,219.548a1.242,1.242,0,0,1-.446-.268Z" transform="translate(-456.595 -202.87)"/><path class="i" d="M456.918,204.945a1.237,1.237,0,1,1,1.83-1.666L474.231,220.3l7.5,3.749,16.079-3.852,9.762-12.551a1.239,1.239,0,0,1,2.012.075l21.754,28.07,15.358-.574a1.237,1.237,0,1,1,.089,2.472l-15.958.6a1.228,1.228,0,0,1-1.056-.478l-21.219-27.378-9.045,11.631,0,0a1.242,1.242,0,0,1-.688.442l-16.946,4.059a1.233,1.233,0,0,1-.838-.1L473,222.444a1.261,1.261,0,0,1-.446-.31Z" transform="translate(-456.595 -202.873)"/></g></g></g><g transform="translate(0 110.494)"><path class="j" d="M5.985,1032.581,69.27,996.539c6.9-3.153,16.774-5.66,23.8-2,6.406,3.335,16.956,10.155,21.622,12.815,3.542,2.022,15.843,9.391,8.182,13.557-22.538,12.255-44.841,26.037-67.725,38.485-4.33,2.354-10.661,3.206-17.306,2.654a45.8,45.8,0,0,1-18.743-5.582q-5.7-3.317-11.225-6.531c-4.965-2.889-7.6-6.31-7.858-9.466C-.232,1037.375,1.751,1034.511,5.985,1032.581Z" transform="translate(0 -749.136)"/><g transform="translate(40.411 105.293)"><g transform="translate(21.059 8.785)"><path class="ae" d="M201,629.62c.292,2.764-.128,6.987.086,17.381.15,7.351-.835,20.188-1.605,31.209-.317,4.562-.956,8.6-1.359,12.148-.292,2.582-1.42,5.118-1.794,7.633-2.793,18.879-6.388,36.035-8.532,58.855-.492,5.247-1.045,7.943-.121,13.154.182,1.013.685,2.033.813,3.053.646,5.033,1.134,10.04,3.1,14.224.285.606.731,2.215,1.084,2.878,0,0-4.508,1.569-5.058,1.648s-7.818-1.944-7.818-1.944-2.7-12.13-2.664-12.833c.471-7.95-5.047-6.488-.15-12.509.46-.753.342-.82.335-1.708-.061-7.865-1.4-19.271-2.4-29.479-2.868-29.169,2-27.075,3.092-41.014-2-16.774-6.071-40.593-5.639-61.237Z" transform="translate(-172.341 -629.62)"/><path class="af" d="M192.231,1027.538c.781,1.434,1.623,3.492,2.343,5.043a31.58,31.58,0,0,1,1.833,4.883,2.309,2.309,0,0,1-.164,1.962c-1.755,2.354-10.55-1.94-13.5-4.544-1.9-1.68-1.94-3.67-2.386-6.1-.671-3.645-.788-4.055-1.659-7.8l-.992,10.169-.838.506a113.92,113.92,0,0,0-1.255-13.161c-.257-1.412-.692-3.021-.753-3.8a8.06,8.06,0,0,1,4.009-8.164c-.77,2.8,1.259,7.355,2.183,13.086.967,6,4.287,12.562,6.9,13.115,1.1.235,3.535-1.138,4.858-1.894C193.315,1030.556,192.744,1028.836,192.231,1027.538Z" transform="translate(-173.937 -872.096)"/></g><path class="ag" d="M129.962,604.99c-2.982,9.687-8.924,18.565-10.09,26.166-1.177,7.658-.539,14.905.942,26.344,1.006,7.775,4.954,25.32,4.116,31.979-1.231,9.744-4.776,15.519-5.953,26.929-.945,9.188.567,22.535,1.024,35.254.171,4.837-.243,4.908-1.395,9.288a33.114,33.114,0,0,0-.82,4.541,67.76,67.76,0,0,0-.317,13.76c.153,1.944.874,2.875,1.056,5.532l10.818,3.446c-.25-2.3-.574-5.814-.72-9.691-.128-3.467-.1-7.219-.086-10.657.014-4.929-.471-8.025.4-12.687,2.91-15.508,7.419-29.151,10.472-41.9,1.594-6.663,2.065-12.587,4.408-22.11a65.127,65.127,0,0,0,1.98-11.76c.617-10.6,2.647-23.316,2.711-34.194,8.756-12.694,14.445-18.929,16.821-25.541a29.53,29.53,0,0,0-1.049-9.491Z" transform="translate(-115.845 -604.99)"/><path class="af" d="M117.08,1031.77c-.931,2.147-1.823,3.242-2.315,6.27s.292,7.968-.314,11.72l-.967,5.957c-.56,3.467.011,6,3.592,9.391,3.246,3.075,6.6,4.6,8.621,3.92,1.487-.5,2.925-2.821,1.626-9.6-1.081-5.65-1.031-11-1.316-17.013a59.81,59.81,0,0,0,.128,13.646c.182,1.634.282,4.266-1.63,4.291-7.907.1-8.025-2.037-8.357-4.519C115.275,1049.215,115.5,1037.666,117.08,1031.77Z" transform="translate(-113.299 -879.548)"/><path class="ah" d="M133.509,604.99c-2.982,9.687-8.924,18.565-10.09,26.166-1.751,11.417.264,20.48,3.353,45.33a27.227,27.227,0,0,1-.667,9.124c-1.844,8.649,6.666,11.075,16.778,7.875,12.352-3.909,23.733-13.136,24.464-17.4,1.38-12.13,4.822-35.2,4.608-45.59s-2.554-13.96-2.846-16.721L169,611.1C168.666,608.953,137.892,605.657,133.509,604.99Z" transform="translate(-119.391 -604.99)"/></g><path class="ai" d="M91.5,364.256c22.649,12.18,32.136-11.11,34.476-28.68,1.006-7.565.745-14.791-2.525-19.321-3.435-4.754-9.192-6.677-14.838-6.456-12.238.478-18.807,12.1-15.854,24.243C95.641,345.9,101.33,358.756,91.5,364.256Z" transform="translate(-58.864 -309.782)"/><path class="aj" d="M152.478,328.021c-6.181-3.178-15.048,3.97-12.155,13.7C141.278,336.581,144.274,330.892,152.478,328.021Z" transform="translate(-89.91 -321.024)"/><path class="ak" d="M149.984,325.241c21.729-7.2,37.248,26.373,12.387,36.777C138.57,371.976,125.855,333.237,149.984,325.241Z" transform="translate(-88.151 -319.082)"/><g transform="translate(96.703 65.719)"><path class="al" d="M383.561,494.733c1.291,1.869-1.138,3.164-2.229,3.224-1.741.228-4.223-.66-4.84.5-.692,1.305-8.842-1.387-8.753-1.466a14.783,14.783,0,0,1,6.962-2.957C379.916,494.376,378.4,495.55,383.561,494.733Z" transform="translate(-333.279 -494.036)"/><path class="am" d="M306.748,507.692c-7.476,2.111-17.695,9.416-24.807,11.025-2.247.506-5.757,1.491-7.526-.417-9.149-9.887,3.57-6.634,4.64-10.372,6.509-4.844,16.7-2.557,25.031-7.044a15.612,15.612,0,0,1,1.626-.956c3.267-1.63,5.1-1.494,10.772,1.355a6.611,6.611,0,0,0,3.948.681l5.707-.735c1.751-.064,2.864.353,3.139.927.3.638-.325,4.244-1.345,5.664l0,.007c-.218.663-1.512,1.17-3.545,1.2l-8.343,2.557-.389-.221C310.678,508.541,308.556,507.6,306.748,507.692Z" transform="translate(-271.125 -497.151)"/></g><path class="an" d="M233.2,479.424c-6.738-6.288-16.3-15.423-19.724-22.645-2.222-4.694-2.639-17.869,4.533-19.531,2.4-1.512,6.049,8.3,8.507,12.262a173.76,173.76,0,0,0,12.944,18.044c5.539-3.592,13.179-3.948,20.373-5.732a7.058,7.058,0,0,1,3.31-.093,11.27,11.27,0,0,0,2.5-.874c.817.221,3.513,4.886,3.053,7.636-.574.161-1.84.553-2.44.763-.852.3-1.33,1.113-2.172,1.569-2.864,1.541-15.722,7.936-22.128,9.384-2.44.549-6.363,1.819-8.282-.253Z" transform="translate(-136.41 -391.682)"/><path class="ao" d="M248.927,483.991c-2.233-2.083-4.776-4.48-7.3-7.016,5.307-4.644,4.819-12.883,1.384-17.9a46.039,46.039,0,0,1-4.694-8.289,37.227,37.227,0,0,0-1.045-4.747,6.9,6.9,0,0,0-.781-1.848c1.095,1.387,1.744,4.1,3.542,7.9,3.075,6.5,7.743,10.294,8.118,17.944.278,5.646,2.853,12.305,7.055,15.312-2.115.435-4.455.628-5.8-.831C249.238,484.337,249.081,484.163,248.927,483.991Z" transform="translate(-152.14 -396.25)"/><g transform="translate(42.631 44.985)"><path class="ap" d="M126.933,486.2c4.152,9.609-2.907,14.927-.364,21.547l-.785,4.483c7.579,5.443,34.683,5.846,41.478-4.94l.143-5.382c1.17-2.575.4-9.088.057-10.8-1.091-5.461-.581-8.36-1.177-14.677-.15-1.6-.449-2.6-.6-4.219,6.035-4.512,5.657-13.236,2.079-18.461a45.822,45.822,0,0,1-4.694-8.289,37.221,37.221,0,0,0-1.045-4.747,7.864,7.864,0,0,0-1.263-2.593c-1.723-2.461-4.508-2.754-10.2-1.448-11.274,2.586-22.884,8.442-28.067,13.96-3.77,4.013-3.62,8.467-1.459,18.1A102.468,102.468,0,0,0,126.933,486.2Z" transform="translate(-119.522 -435.906)"/><path class="ao" d="M129.771,523.589c4.152,9.609-2.736,15.1-.193,21.718l-.785,4.426c7.579,5.9,34.683,5.618,41.478-5.168l-.143-4.694c0-.185-13.308,11.8-28.456,5.136-3.292-1.448-6.27-8.649-2.012-22.4.407-1.309,5.232-1.4,12.07-6.434-5.047,2.14-14.567,5.072-15.037-7.772-.21-5.742-1.056-10.058-3.995-14.049-1.423-1.937-9.78,8.218-8.507,13.086A122.59,122.59,0,0,0,129.771,523.589Z" transform="translate(-122.442 -473.35)"/></g><path class="aq" d="M183.92,444.682c.931,3.057,1.445,18.13-.335,24.789-6.046-6.841-23.719-15.754-21.454-20.584C164.945,442.885,182.3,439.35,183.92,444.682Z" transform="translate(-104.175 -394.884)"/><path class="am" d="M185.28,446.881c.835,2.732,1.113,16.357-.064,22.242-4.647-5.55-21.682-14.017-19.617-18.782C167.949,444.912,183.828,442.123,185.28,446.881Z" transform="translate(-106.422 -396.416)"/><g transform="translate(61.438 16.734)"><path class="am" d="M175.437,415.6a29.542,29.542,0,0,1-1.127,14.485c4.063,3.763,11.292,2.165,12.972-1.245-.357-2.2-.767-4.23-1.006-6.5Z" transform="translate(-173.576 -394.592)"/><path class="ar" d="M177.47,415.6a28.408,28.408,0,0,1,.364,7.009c1.191,4.819,10.208,8.072,11.146,4.241-.257-1.48-.506-2.935-.671-4.508Z" transform="translate(-175.609 -394.592)"/><path class="am" d="M190.9,356.7a16.1,16.1,0,0,1,2.636,11.028,4.766,4.766,0,0,0,.378,2.636c1.894,4.277,1.726,5.6.788,9.031-.913,3.335-.852,5.076-1.99,6.22a6.632,6.632,0,0,1-4.394,1.537c-3.032.193-8.243-1.808-11.267-3.467-2.243-1.227-2.158-2.065-3.107-4.194-3.167-2.754-1.116-4.765-.053-4.972,3.042-.592,3.535,2.914,5.339,3.692C178.936,372.051,190.677,361.647,190.9,356.7Z" transform="translate(-172.253 -356.7)"/><path class="as" d="M211.216,363.62a15.84,15.84,0,0,1,1.291,8.56,4.766,4.766,0,0,0,.378,2.636c1.894,4.277,1.726,5.6.788,9.031-.41,1.494-.624,2.668-.835,3.613a2.843,2.843,0,0,1-3.542,1.024c-1.266-.56-2.511-2.062-2.825-4.558-.221-1.773-3.856-2.943-4.6-4.744-.621-1.494,1.056-3.164,2.072-4.023A25.386,25.386,0,0,0,211.216,363.62Z" transform="translate(-191.219 -361.152)"/><path class="at" d="M203.49,356.7c-1.7,7.565-11.585,13.293-11.67,21.511C194.527,369.672,204.111,363.826,203.49,356.7Z" transform="translate(-184.841 -356.7)"/></g><g transform="translate(19.207 59.207)"><path class="au" d="M116.2,630.63c1.345.813,3.8,1.605,4.779,2.194.51.3,4.162,2.579,6.22,3.959,2.2,1.477,2.818,3.609,4.13,5.978a14.891,14.891,0,0,1,1.48,4.294c.139,1-2.4,2.918-3.474,2.679-2.447-.542-4.947-3.549-5.593-3.881-5.482-2.843-8.111-3.124-10.09-5.386-.845-.967-1.362-3.791-3.11-6.331l3.363-3.042Z" transform="translate(-90.32 -575.398)"/><path class="av" d="M79.726,476.235c-8.881,3.713-16.475,21.094-24.543,31.462-1.594,2.051-1.63,4.077-.788,5.585a15.333,15.333,0,0,0,1.587,2.853c3.834,5.635,6.962,10.433,15.155,17.4a4.907,4.907,0,0,0,2.108.988c.514.424,1.234,1.191,1.783,1.637-.681-.877,3.4-5.268,5.243-4.976-.474-.588-.959-1.227-1.452-1.9a2.729,2.729,0,0,0-.549-1.748c-3.421-4.951-6.738-11.549-10.971-16.186a104.647,104.647,0,0,0,17.4-16.971C93.009,484.25,86.5,473.4,79.726,476.235Z" transform="translate(-53.849 -475.778)"/></g></g><g transform="translate(64.117 283.364)"><path class="j" d="M228.15,1368.213c25.681-14.827,67.212-14.827,92.725,0,25.538,14.841,25.406,38.9-.278,53.722s-67.212,14.827-92.75-.014C202.334,1407.094,202.469,1383.04,228.15,1368.213Z" transform="translate(-198.443 -1156.414)"/><path class="j" d="M567.39,1334.232l-67.536-38.464c-7.362-3.363-17.9-6.042-25.4-2.136-6.834,3.556-18.094,10.836-23.07,13.675-3.781,2.158-16.906,10.019-8.731,14.467,24.051,13.076,47.851,27.785,72.273,41.071,4.619,2.511,11.374,3.421,18.469,2.832a48.861,48.861,0,0,0,20-5.957q6.088-3.542,11.977-6.969c5.3-3.085,8.107-6.73,8.385-10.1C574.028,1339.35,571.909,1336.3,567.39,1334.232Z" transform="translate(-347.191 -1114.343)"/><g transform="translate(24.545 108.292)"><g transform="translate(0 94.938)"><path class="aw" d="M351.245,1447.23l.1,5.068c.025,7.658-5.029,15.326-15.141,21.165-16.129,9.309-39.338,10.793-57.524,6.039-12.006-3.132-30-12.123-30-26.925l-.1-5.068Z" transform="translate(-248.58 -1417.631)"/><path class="ax" d="M263.73,1372.95c20.1-11.606,52.613-11.606,72.587,0,19.992,11.617,19.888,30.449-.218,42.056s-52.613,11.606-72.608-.011C243.521,1403.388,243.628,1384.559,263.73,1372.95Z" transform="translate(-248.582 -1364.245)"/></g><path class="aw" d="M384.932,1098.07l.011,120.923a3.151,3.151,0,0,1-1.858,2.6,9.959,9.959,0,0,1-7.066.742c-1.477-.385-3.684-1.487-3.684-3.307l-.014-120.923Z" transform="translate(-328.185 -1098.07)"/></g><g transform="translate(112.494 117.237)"><path class="ay" d="M525.087,1139.092c-6.192,15.918-9.595,38.371-13.354,55.873a9.149,9.149,0,0,1-4.433,6.117c-4.376,2.261-9.284,1.776-10.472-1.487.1-16.375-.906-28.463-.392-37.447.574-10.062,4.351-25.388,8.2-31.248C507.489,1117.332,531.686,1122.528,525.087,1139.092Z" transform="translate(-495.886 -1123.148)"/><path class="az" d="M552.544,1138.271c-.207.7-.417,1.338-.631,1.887l-.26.674-.057.146c-1.038,2.75-2,5.682-2.893,8.742l-.043.143-.214.735-.068.232-.146.521c-4.073,14.449-6.92,31.616-9.866,45.341-1.541-20.6,1.837-41.185,7.319-58.99a67.516,67.516,0,0,0-.339-12.9C550.443,1126.38,554.5,1131.106,552.544,1138.271Z" transform="translate(-522.715 -1124.211)"/><g transform="translate(0 67.936)"><path class="i" d="M518.211,1333.087c-2.843,2.782-4.562.991-5.742,6.035-3.085,4.722-5.928,6.163-8.5,5.635-3.264-.671-5.81-1.994-6.285-5.621-.553-6.056-.674-7.194.913-11.652l.439-.293a1.23,1.23,0,0,1,1.305-.392c2.843.678,3.713,2.432,4.74,3.413,2.215,2.115,4.348.421,5.289-2.029l.007-.029.018-.068.007-.021.032-.121.011-.043.039-.161,0-.025.032-.153.011-.05,0-.014.007-.043.018-.082v0l.014-.082.043-.239.036-.235,0-.036c.021-.143.039-.289.057-.435l.007-.054.018-.175,0-.032,0-.036.011-.1,0-.039.011-.114.021-.278,0-.068,0-.064.014-.225.011-.164.011-.228c-.018-.128-.036-.253-.061-.375a6.721,6.721,0,0,1,.136-2.133c.007-.239.018-.474.029-.71,3.1-1.734,7.772-6.452,11.085-7.351,2.375-.646,3.709,2.732,3.8,4.316C526.044,1322.316,521.264,1329.752,518.211,1333.087Z" transform="translate(-496.543 -1313.937)"/><path class="ba" d="M511.734,1331.88c-.143,3.438.125,7.212-2.4,9.216-2.208,1.748-6.024,2.422-8.346-1.077-.977-1.473-.87-4.016-1.223-7.148C499.753,1335.172,511.883,1334.266,511.734,1331.88Z" transform="translate(-498.119 -1325.367)"/><path class="bb" d="M516.061,1331.31c-2.843,2.782-4.562.992-5.742,6.035-3.089,4.722-5.928,6.163-8.5,5.636-3.264-.671-5.81-1.994-6.285-5.621-.553-6.056-.674-7.191.913-11.652l.439-.292a1.23,1.23,0,0,1,1.305-.392c2.843.678,3.713,2.432,4.74,3.413,2.215,2.115,4.344.421,5.289-2.029l.007-.029.018-.068.007-.021.032-.121.011-.043.039-.161.007-.025.032-.15.011-.05,0-.014.007-.043.018-.082v0l.014-.082.043-.239.036-.235,0-.036c.021-.143.039-.289.057-.435l.007-.053.018-.175,0-.032,0-.036.011-.1,0-.039.011-.114.021-.278,0-.068,0-.064.014-.225.011-.164.011-.228c-.018-.129-.036-.253-.061-.375a6.721,6.721,0,0,1,.136-2.133c.007-.239.018-.474.029-.71,3.1-1.733,7.665-5.129,10.982-6.031a3.142,3.142,0,0,1,3.906,3C523.894,1320.539,519.118,1327.976,516.061,1331.31Z" transform="translate(-495.16 -1313.619)"/><path class="i" d="M566.24,1314.734c.838.942,2.7.325,3.6,2.4.046-1.37-1.352-3.328-2.818-3.328C566.733,1313.81,565.83,1314.359,566.24,1314.734Z" transform="translate(-540.82 -1313.742)"/><path class="bc" d="M512.958,1315.5q-.337,1.632-.674,3.21a9.149,9.149,0,0,1-4.434,6.117c-4.376,2.261-9.284,1.776-10.472-1.487.011-1.416-.235-2.8-.239-4.155C499.562,1322.18,507.833,1323.982,512.958,1315.5Z" transform="translate(-496.434 -1314.829)"/></g></g><path class="bd" d="M282.4,1109.351c-13.764-3.834-40.062,10.822-64.911,37.415-22.435,24.011,63.278,49.271,80.3,42.751,16.182-6.2,57.232-26.733,53.779-35.393C344.83,1137.214,307.308,1116.292,282.4,1109.351Z" transform="translate(-201.644 -996.647)"/><g transform="translate(29.392)"><path class="be" d="M357.9,1116.176c-12.259.4-26.041-.039-36.984,3.98-10.219,3.756-8.6,18.5.7,26.986,8.15,7.437,21.95,9.619,42.291,1.27,6.324-2.6,12.369-5,21.839-6.081,9.113-1.045,15.041.81,20.052-7.776,3.549-6.085,2.447-13.275-5.96-16.008C387.521,1114.542,370.519,1115.762,357.9,1116.176Z" transform="translate(-295.463 -1001.103)"/><g transform="translate(30.672 120.728)"><g transform="translate(131.554 67.509)"><path class="ba" d="M727.09,1322.21a113.181,113.181,0,0,0,5.949,9.823c1.987,2.918-2.2,7.7-5.008,9.231-2.828,1.548-7.273,1.573-9.216-2.828-.753-1.7-1.013-4-1.815-6.153C718.409,1334.572,724.64,1327.81,727.09,1322.21Z" transform="translate(-717 -1322.21)"/><g transform="translate(0.355 5.689)"><path class="i" d="M724.824,1352.929c1.43-.36,9.983,2.725,10.386-8.089,6.142,1.509,16.061-3.321,21.632-3.253.992.011,2.675-1.1,3.185-.535,1.6,1.766,3.392,4.544,1.042,7.162a49.039,49.039,0,0,1-8.364,6.541,81.187,81.187,0,0,1-11.086,6.049c-3.763,1.5-5.486,2.154-6.688,3.613a10.653,10.653,0,0,1-5.15,2.55,9.419,9.419,0,0,1-8.05-3.271c-.653-.838-1.6-4.929-1.694-7.7a39.64,39.64,0,0,1,.931-7.273Z" transform="translate(-719.304 -1339.917)"/><path class="bb" d="M735.217,1341.7c3.378.2,11.984-2.4,17.62-3.214,2.422-.35,4.548-.853,6.149,1.056,1.473,1.751,1.327,3.578-.617,5.739a40.213,40.213,0,0,1-7.508,6.067,80.8,80.8,0,0,1-11.085,6.049c-3.763,1.5-5.486,2.154-6.691,3.613a10.652,10.652,0,0,1-5.15,2.55,9.844,9.844,0,0,1-8.118-3.574c-.653-.838-1.527-4.626-1.626-7.4-.054-1.548-.264-3.841-.171-5.215.153-2.25,1.084-2.589,2.158-2.283,1.994.571,3.064,2.176,4.066,3.463a4.178,4.178,0,0,0,2.932,1.751c2.272.185,3.941-1.437,4.779-3.542a15.324,15.324,0,0,0,.5-4.548c-.025-.143-.057-.285-.089-.424-.414-3.734,1.43-3.817,1.334-2.989A3.241,3.241,0,0,0,735.217,1341.7Z" transform="translate(-717.995 -1338.159)"/><path class="i" d="M828.165,1339.727c.278,1.416,2.183-.018,2.811,3.581,1.2-1.7-.728-3.97-2.1-4.373C828.56,1338.843,827.876,1338.679,828.165,1339.727Z" transform="translate(-788.825 -1338.614)"/></g></g><path class="bf" d="M450.942,1142.019c9.837,16.785,28.056,41.859,38.221,56.872,2.593,4.876-1.8,12.4-9.855,13.482-11.531-13.75-24.956-21.529-36.345-38.535-2.154-3.217-6.131-9.983-8.632-14.859-3.11.378-7.319,1.031-11.877,1.783-9.406,1.552-17.188,3.745-23.352,6.7-19.824,9.512-33.727,8.136-42.294,1.181-9.773-7.929-12.245-22.56-2.261-26.9,10.69-4.651,22.895-5.639,35.1-6.748,11.157-1.017,33.452-3.175,47.092-1.352,1.066.143,2.079.31,3.028.5,3.634.635,6.1,1.534,8.806,4.366A10.415,10.415,0,0,1,450.942,1142.019Z" transform="translate(-348.164 -1132.937)"/><path class="bg" d="M717.763,1309.6c.585.967,2.711,4.073,3.264,5,1.516,4.048-3.916,11-12.027,11.617-.613-.824-2.868-3.228-3.5-4.02C712.823,1320.133,717.452,1316.034,717.763,1309.6Z" transform="translate(-578.047 -1246.589)"/></g><g transform="translate(15.68 21.781)"><g transform="translate(0 11.286)"><g transform="translate(33.371)"><path class="am" d="M399.69,901.271c2.126-3.663,4.277-6.748,6.623-10.04,1.922-2.7,2.575-2.629,5.553-3.474,3.278-.927,3.973-.7,6.9.178a9.982,9.982,0,0,1,5.311,3.7c2.019,3.635-6.384,4.426-7.109,4.751-1.37,2.65-1.744,4.722-4.191,6.22-4.052,2.479-5.689,2.568-7.194,5.532Z" transform="translate(-399.69 -887.162)"/><path class="bh" d="M412.566,901.092c2.607-3.046,2.764-3.749,6.167-6.552q.209-.08.407-.15l2.91.164c1.441,1.505,3.973,3,5.625,1.305.071.1.143.2.207.3,1.2,1.9-.011,4.38-1.116,4.551-2.671.407-4.762-.182-5.9.324-1.37,2.65-1.744,4.722-4.191,6.22-4.052,2.479-5.689,2.568-7.194,5.532l-3.731-4.348Z" transform="translate(-403.589 -891.812)"/></g><path class="bi" d="M323.057,962.049c2.632-3.717,16.76-18.622,20.241-24.735a9.94,9.94,0,0,0,.745-3.431l1.9-2.454c-.357-2.932-3.56-6.317-6.417-6.7l-2.051,1.673a10.284,10.284,0,0,0-4.812,1.106c-9.513,5.564-26.619,21.322-26.533,32.646C306.183,968,319.394,965.355,323.057,962.049Z" transform="translate(-306.129 -911.33)"/></g><path class="bj" d="M423.487,855.52,398.68,895.057l40.286,9.93,24.807-39.537Z" transform="translate(-365.669 -855.52)"/><path class="am" d="M407.173,910.684c5.657.549,4.754-2.707,6.752-6.452a12.532,12.532,0,0,0,2.711-2.151c3.87-.653,4.359-2.433,3.87-4.291-1.305.021-3.881.025-4.99.153-5.329,2.268-9.288,2.44-11.6,8.314C403.082,908.387,405.5,908.041,407.173,910.684Z" transform="translate(-368.93 -882.713)"/><path class="i" d="M466.506,916.609a1.074,1.074,0,0,0,2.047.653,45.584,45.584,0,0,0,1.876-12.059c-.018-3.121-.663-5.792-2.475-6.805-3.025-1.691-4.983-.428-6.955.849-.35.221-.7.449-1,.617a4.855,4.855,0,0,1-2.051.731,1.7,1.7,0,0,1-1.412-.567,4.5,4.5,0,0,1-.917-2.015,12.764,12.764,0,0,1,0-5.029c.168-.828.364-1.655.56-2.475,1.077-4.523,2.108-8.853-1.947-10.547a1.075,1.075,0,1,0-.824,1.987c2.372.988,1.548,4.451.685,8.064-.2.856-.41,1.723-.578,2.557a14.924,14.924,0,0,0,.014,5.924,6.612,6.612,0,0,0,1.42,2.978,3.738,3.738,0,0,0,3.124,1.263,6.921,6.921,0,0,0,2.989-1.009c.41-.235.749-.457,1.084-.674,1.43-.927,2.85-1.844,4.747-.781,1.009.564,1.37,2.543,1.384,4.951A43,43,0,0,1,466.506,916.609Z" transform="translate(-400.453 -871.19)"/></g><path class="bk" d="M280.159,996.816l.788,3.4c6.5,10.44,30.984,17.381,48.369,2.343a26.038,26.038,0,0,1-.77-4.323c.4-1.184.364-3.06.1-5.771-.663-6.673-3.135-18.344-3.164-18.9-.77-14.724,2.45-29.344-4.073-39.816-1.4-2.247-3.278-3.114-5.436-4.266-4.694-2.511-25.809-9.017-36.773-10.6-6.591-.952-13.828.3-16.189,7.9-3.221,10.383,3.488,25.759,9.006,40.283C279.228,986.065,275.9,988.969,280.159,996.816Z" transform="translate(-262.168 -874.324)"/><path class="bl" d="M404.746,1013.952c-.029-.364-.064-.749-.1-1.148-.663-6.673-3.135-18.344-3.164-18.9-.77-14.724,2.9-29.633-4.073-39.816-4.08-5.964-12.929-4.926-16.079,2.44-2.386,5.578-.221,13.564,2.671,26.761,2.051,9.356,5.735,31.23,11.278,33.527C397.159,1017.6,400.37,1016.585,404.746,1013.952Z" transform="translate(-338.168 -894.668)"/><g transform="translate(11.798)"><path class="bm" d="M327.653,883.906a55.236,55.236,0,0,0,2.832,12c-7.248,1.12-17.613,1.116-19.713-4.045l-.432-10.151C316.122,874.8,327.35,883.977,327.653,883.906Z" transform="translate(-304.956 -848.928)"/><path class="bn" d="M305.636,914.33c-2.008,1.059-3.588,3.624-2.935,4.958,3.752,8.275,20.177,7.793,29.672,3.845-1.3-2.176-4.819-4.947-6.827-5.207C319.439,919.705,308.518,919.088,305.636,914.33Z" transform="translate(-299.946 -871.573)"/><path class="am" d="M318.786,842.834c-2.165-.51-3.406-3.139-4.187-7.608-.663-3.788-11.335,1-11.16.749-.967-3.446-4.316-6.053-5.072-10.846-1.059-6.7.589-13.775,7.233-17.752,12.138-7.262,25.352.8,27.221,14.028.364,2.582-1.78,3.67-1.99,5.81-.043.417.453.927.778,1.908.449,1.359-.852,9.869-3.292,13.186C327.3,843.69,320.413,843.487,318.786,842.834Z" transform="translate(-297.064 -801.008)"/><path class="bo" d="M374.4,861.9c-.414.6-3.535-.078-4.687-.606,4.876-6.135-.767-11.093,4.23-16.938,3-3.51-.1-7.415,3.249-9.263a21.238,21.238,0,0,1,1.712,5.9c.364,2.582-1.78,3.67-1.99,5.81-.043.417.453.927.778,1.908C378.138,850.074,376.751,858.52,374.4,861.9Z" transform="translate(-343.151 -820.596)"/><g transform="translate(20.555 31.105)"><path class="bp" d="M356.7,883.8c.806-1.552.389-2.211-.353-2.129a4.678,4.678,0,0,0-2.889,2.686c-1.3,2.6-.41,6.224,2.4,5.229-2.283-.171-1.708-2.871-.806-4.466C355.666,884.033,356.486,883.319,356.7,883.8Z" transform="translate(-352.875 -881.661)"/><path class="bq" d="M358.735,889.34c.478,1.263.6,1.994.346,2.372-.178.264-.66.528-1.28-.26A4.075,4.075,0,0,1,358.735,889.34Z" transform="translate(-356.043 -886.601)"/></g><path class="br" d="M300.12,829.927c-.745-3.852-3.856-7.422-4.548-11.792-.681-4.309-.656-10.251,3.724-13.607,2.8-10.8,17.078-11.784,26.337-8.221a7.562,7.562,0,0,1,.917,13.757,10.187,10.187,0,0,1-2.161,7.826c-2.087,2.272-2.226,2.639-2.614,5.079-.307,1.926-1,6.616-2.465,2.45-.945-2.693-4.359-.207-5.165,2.493a12.43,12.43,0,0,1-2.383,4.694C308.184,837.079,300.533,832.071,300.12,829.927Z" transform="translate(-295.246 -794.454)"/><path class="bs" d="M321.46,803.5c3.538-9.944,17.777-7.144,22.324-4.426,4.6,2.75,3.46,12.455-3.5,11.581C335.534,810.061,330.38,802.135,321.46,803.5Z" transform="translate(-312.11 -795.781)"/></g><g transform="translate(83.566 46.196)"><path class="bt" d="M520.958,945.666l4.291-.506,3.795-3.153.2-5.821-3.092-1.862c-3.249.392-5.15-.51-5.832.111C519.571,935.122,519.945,938.864,520.958,945.666Z" transform="translate(-511.556 -930.558)"/><path class="am" d="M496.84,954.41a15.406,15.406,0,0,0,1.887-2.725,11.244,11.244,0,0,1,2.322-7.779c2.5-3.4,2.853-3.849,3.381-6.381a17.149,17.149,0,0,1,.542-2.34c.546-1.316,2.051-.945,2.568.4a6.592,6.592,0,0,1,.128,3.4L507,940.746l4.565-5.193c.735-1.134-8.064.043-6.092-2.639a11.737,11.737,0,0,1,4.516-.874,23.823,23.823,0,0,1,3.984.039c1.823.153,2.536,7.636,2.565,9.584a7.866,7.866,0,0,1-.449,3.117,18.88,18.88,0,0,1-4.038,5.81c-2.964,2.646-5.621,2.315-7.893,7.3Z" transform="translate(-496.704 -929.119)"/><path class="af" d="M519.63,924.128c-8.089,3.267-19.2,7.4-23.169,10.893,4.351-.039,15.915-5.236,24.029-8.607C522.5,925.58,521.516,923.368,519.63,924.128Z" transform="translate(-496.46 -923.972)"/><path class="am" d="M508.64,948.224c2.5-3.4,2.853-3.849,3.381-6.381a17.156,17.156,0,0,1,.542-2.34c.546-1.316,2.051-.945,2.568.4a6.593,6.593,0,0,1,.128,3.4l-.813,2.843Z" transform="translate(-504.296 -933.436)"/></g><path class="bu" d="M406.646,979.975c4.277-5.667,9.1-11.924,11.995-14.484a9.923,9.923,0,0,1,3.2-1.434l2.008-2.361c2.943-.253,6.912,2.183,7.875,4.9l-1.216,2.354a10.314,10.314,0,0,1-.089,4.936c-3.442,10.311-15.062,29.9-26.034,32.586a8.84,8.84,0,0,1-4.244-.014c-2.022-.435-2.907-3.11-3.731-4.822-6.531-13.55-9.709-18.408-13.928-32.04-2.782-8.985-1.848-14.11,1.33-17.188,3.981-3.859,9.933-3.881,13.129.239C401.767,958.86,404.752,970.62,406.646,979.975Z" transform="translate(-338.51 -894.221)"/></g><path class="bv" d="M321.166,1109.072l-30.521,20.177c-18.048,11.246-43.261,11.72-61.8,1.252L194.4,1110.976c-12.544-7.112-15.736-18.019-14.335-32.889,1.056-11.2,10.226-40.158,15.779-51.621,14.071-29.055,58.983.874,66.5,21.354a75.872,75.872,0,0,0,18.1,28.9c19.535,20,24.425,2.254,38.093-2.557,12.73-4.48,13.511,9.955,12.9,21.058C331.1,1101.781,327.607,1104.874,321.166,1109.072Z" transform="translate(-179.763 -935.947)"/><path class="bw" d="M321.166,1206.186l-30.521,20.177c-18.048,11.246-43.261,11.72-61.8,1.252L194.4,1208.09c-12.544-7.112-15.736-18.019-14.335-32.889a77.722,77.722,0,0,1,1.808-9.851c3.107,3.895,47.509,42.886,81.033,45.422,20.9,1.584,42.245-5,68.539-18.437C331.1,1198.9,327.607,1201.988,321.166,1206.186Z" transform="translate(-179.763 -1033.061)"/></g></g></svg>